<?xml version="1.0" encoding="utf-8"?>
<!-- Generator: Adobe Illustrator 19.1.0, SVG Export Plug-In . SVG Version: 6.00 Build 0)  -->
<svg version="1.1" id="Layer_1" xmlns="http://www.w3.org/2000/svg" xmlns:xlink="http://www.w3.org/1999/xlink" x="0px" y="0px"
	 viewBox="0 0 1440 996" style="enable-background:new 0 0 1440 996;" xml:space="preserve">
<style type="text/css">
	.st0{clip-path:url(#SVGID_2_);fill:#FFFFFF;}
	.st1{clip-path:url(#SVGID_2_);fill:none;stroke:#F0EDE9;stroke-width:4;stroke-miterlimit:10;}
</style>
<g>
	<defs>
		<rect id="SVGID_1_" x="0" y="0" width="1440" height="996"/>
	</defs>
	<clipPath id="SVGID_2_">
		<use xlink:href="#SVGID_1_"  style="overflow:visible;"/>
	</clipPath>
	<path class="st0" d="M453.7,285.8c-10.5,12.3-23.5,22.4-35.9,33.9c-2.2-2.2-4.3-4-6.2-6.1c-38.4-41.2-76.7-82.4-115.3-123.4
		c-5.1-5.4-5.8-8.6,0.3-13.6c9.6-7.8,18.2-16.7,27.7-24.5c16.8-14,35.6-13.5,50.8,2.4c26.3,27.3,52.1,55.1,77.6,83.2
		C466.8,253.2,467.6,269.7,453.7,285.8 M480.3,0h-60.9c-2.4,2.3-4.8,4.6-7.1,6.9c-5.1,5-4.3,10.6-0.3,16.4
		c18.8,26.5,37.4,53,56.1,79.5c38.8,54.9,77.6,109.7,116.5,164.5c24.5,34.5,49,69,73.6,103.4l-0.1,0c1.4,1.9,1.2,4.6-0.6,6.2
		c-1.7,1.6-4.1,1.6-5.9,0.4l0,0.1c-3.1-2-6.3-4.1-9.4-6.1c-41.8-27.3-83.5-54.7-125.4-81.9c-4.2-2.8-7.1-5-5.1-10.8
		c9-26.9,1.8-51.1-16-71.3c-27.3-31.1-55.5-61.5-84.5-91c-31.6-32.2-72.8-34.9-107.9-6.3c-26.5,21.5-50.9,45.7-76.1,68.8
		c-4.6,4.2-4.9,8.9-0.9,13.8c2,2.5,4,4.9,6.1,7.2C330.6,305,428.9,410.4,527.1,515.8c2,2.1,4.1,4.1,6.1,6.1c5.5,5.7,11,5.2,16.5,0
		c5.6-5.3,11.4-10.6,17-15.9c11.8-11.1,11.9-13.2,0.9-25.1c-36.7-39.3-73.4-78.7-110-118l-7.6-8.1c9.2-8.6,17-16.3,25.4-23.3
		c1.7-1.5,6.5-1.4,8.6,0c25.9,17,51.6,34.4,77.3,51.6c23.4,15.6,46.9,31.1,70.2,46.8c6.7,4.5,12.7,4.2,18.6-1.5
		c6-5.8,12.2-11.4,18.3-17.2l0.1,0.1l21.3-19.9c0.3-0.3,0.5-0.5,0.9-0.8c5.9-5.5,11.8-10.9,17.6-16.5c7.7-7.3,8-11.2,1.6-20
		c-39-54.4-77.9-108.8-116.9-163.2c-24.9-34.8-50-69.5-75-104.2c0.1-0.2,0.3-0.4,0.4-0.7c17.1,14.9,34.1,29.9,51.3,44.6
		c42.4,36.1,84.9,72.1,127.4,108.2c23.9,20.2,47.7,40.5,71.7,60.6c8.3,7,12.2,6.7,20.2-0.6c7.9-7.1,15.6-14.5,23.3-21.8
		c7.4-7,7.9-11.3,1.9-19.4c-28-38.2-56.2-76.3-84.2-114.6c-29.9-40.8-59.6-81.6-89.5-122.4c-5-6.8-10.3-13.5-15-20.7h-55.3
		c20,27.3,40,54.6,60,82c24.3,33.1,48.5,66.3,72.8,99.4c3.5,4.8,7.4,9.4,10,15.3c-5.4-4.8-10.7-9.8-16.3-14.4
		c-44.6-37.6-89.2-75.1-133.8-112.7C535.4,46.4,507.8,23.2,480.3,0 M911,169.8c-20-16.4-39.9-32.9-59.9-49.3
		c-49-40.2-98-80.3-147-120.5h-74.7c3.1,2.7,6.2,5.3,9.4,8c61,50.6,122,101.2,183,151.8c16.1,13.4,32.2,26.8,48.3,40.3
		c11.2,9.4,14.7,9.3,25.6-0.8c5.3-4.9,10.3-10,15.8-14.7C917.8,179.2,916.8,174.5,911,169.8 M1440,996V0H957.2
		c82.4,170.6,48.6,381.8-97.2,517.8C680.6,685,399.7,675.2,232.4,495.9C103.9,358,79.9,160.1,157.1,0H55.6
		c-71.3,185.8-36.3,404.1,108.6,559.5c202.4,217,542.4,228.9,759.4,26.5c135-125.9,190-305.1,164-474.8h0.1
		c-0.7-4.1,0.4-8.5,3.7-11.5c1.9-1.8,4.2-2.6,6.6-3.1l54.4-8.3l9.2-1.4c4.2-0.8,8.5,0.6,11.6,4c1.8,1.9,2.7,4.3,3.1,6.8
		c0,0,1.1,6,1.5,9c27,195.3-37.9,400.2-193,544.9c-253.2,236.2-650,222.3-886.1-30.9c-40.1-43-72.9-90-98.6-139.8V996H1440z"/>
	<path class="st1" d="M1285.8,870.8L1285.8,870.8c-63.1,42.1-145,53.5-220.6,23C943.7,844.7,885,706.4,934.1,584.9
		c49.1-121.5,187.4-180.2,308.8-131.1c75.6,30.5,126.6,95.7,142.7,169.8l0,0c0.4,1.8,1.5,3.4,3.4,4.2c1.1,0.4,2.2,0.4,3.2,0.2
		l23.7-5.2l4-0.9c1.9-0.3,3.4-1.6,4.2-3.5c0.4-1.1,0.4-2.2,0.2-3.3c0,0-0.5-2.6-0.8-4c-19.8-84.8-78.9-159-165.8-194.1
		c-141.8-57.3-303.1,11.2-360.4,153c-57.3,141.8,11.2,303.1,153,360.4c86.9,35.1,181,22.8,254.1-24.4c1.1-0.7,3.3-2.3,3.3-2.3
		c0.9-0.6,1.7-1.4,2.1-2.5c0.8-1.9,0.5-3.8-0.6-5.4l-2.3-3.4l-13.5-20.2c-0.6-0.9-1.4-1.6-2.5-2.1
		C1289.3,869.4,1287.3,869.8,1285.8,870.8z M1116.7,640.4c6.5-15.4,12.8-31,18.8-46.6c3.5-9.1,0.2-16.7-8.5-20.8
		c-4.9-2.3-10.1-4.1-15-6.5c-3.1-1.5-4.3-0.6-5.5,2.4c-9.2,23.1-18.6,46.1-27.9,69.2c-0.5,1.1-0.8,2.3-1.3,3.6
		c6.9,2.8,13.4,6.1,20.3,8C1106.7,652.3,1113.1,648.9,1116.7,640.4z M1223.6,814.1c-2.9-1.3-5.9-2.4-8.8-3.6
		c-6.1-2.5-6.8-3.9-5.1-10.1c2.4-8.9,4.8-17.9,7.1-26.8c8.9-33.9,17.7-67.7,26.6-101.6c0.9-3.3,1.8-6.6,2.7-9.9
		c-3,4.2-5.2,8.6-7.5,12.9c-10.7,19.6-21.5,39.1-32.3,58.7c-10.1,18.4-20.1,36.7-30.1,55.1c-2.1,3.9-3.9,4.5-8.1,2.8
		c-4.4-1.7-8.7-3.5-13.1-5.3c-4.4-1.8-5.2-3.3-4-8c3.6-13.4,7.2-26.7,10.9-40c6.5-23.7,13-47.5,19.5-71.2c2.7-9.6,5.5-19.2,8.3-28.8
		c-0.1,0-0.2,0-0.3,0c-9.2,16.5-18.4,33-27.7,49.5c-14.5,25.8-29,51.5-43.5,77.2c-2.4,4.2-3.9,4.8-8.3,3.1c-3.3-1.3-6.6-2.6-9.9-4
		c-0.2-0.1-0.3-0.1-0.5-0.2l-11.9-4.8l0,0c-3.4-1.4-6.8-2.8-10.3-4.1c-3.4-1.3-4.6-3.6-4.1-7.1c1.9-12.3,3.7-24.6,5.6-36.8
		c2.1-13.5,4.2-27,6.2-40.6c0.2-1.1-0.7-3-1.6-3.4c-4.3-2.1-8.9-3.7-14.1-5.8l-1.8,4.6c-8.9,22-17.8,44-26.7,66.1
		c-2.7,6.6-3.6,7-10.2,4.3c-3.2-1.3-6.4-2.6-9.5-3.9c-3.1-1.2-4.3-3.3-3.1-6.6c0.5-1.2,0.8-2.4,1.3-3.6c23.8-59,47.7-118,71.5-177
		c0.5-1.3,1.1-2.6,1.7-3.8c1.2-2.5,3.2-3.2,5.7-2.2c13.9,5.8,28.2,11,41.7,17.6c18,8.8,24.6,25.7,17.6,44.4
		c-6.4,17.1-13.3,34.1-20.7,50.8c-4.8,10.9-13.1,18.3-25.6,19.7c-2.7,0.3-3.1,1.9-3.4,4.1c-3.1,21.8-6.2,43.6-9.4,65.5
		c-0.2,1.6-0.5,3.3-0.7,4.9l0,0c-0.2,1,0.3,1.9,1.3,2.3c1,0.4,2.1,0,2.6-0.9l0,0c9.2-16.3,18.4-32.5,27.6-48.8
		c14.7-25.8,29.4-51.6,44.1-77.3c7.1-12.4,14.3-24.9,21.4-37.3c1.5-2.7,3.6-4,6.6-2.9c5.5,2,10.9,4.2,16.2,6.5
		c2.7,1.2,3.5,3.5,2.7,6.3c-0.4,1.5-0.8,2.9-1.2,4.4c-4.9,18.2-9.9,36.5-14.8,54.7c-6.7,24.9-13.4,49.7-20.1,74.6
		c-0.8,3.1-1.8,6.1-2.7,9.2c1.9-2.1,3-4.5,4.3-6.8c8.7-15.9,17.5-31.8,26.2-47.7c13.6-24.7,27.1-49.4,40.7-74
		c2.1-3.8,4.4-4.7,8.5-3.2c4.5,1.7,9,3.5,13.4,5.4c4.1,1.8,5.1,4,4,8.2c-6.3,24.6-12.6,49.1-18.9,73.7c-7.3,28.5-14.6,57-21.9,85.5
		c-2.8,11.1-5.7,22.1-8.5,33.2C1228.6,814.3,1226.9,815.6,1223.6,814.1z M1335.8,747.3c40.6-100.4-7.9-214.7-108.3-255.2
		c-100.4-40.6-214.7,7.9-255.2,108.3c-40.6,100.4,7.9,214.7,108.3,255.2C1181,896.2,1295.3,847.7,1335.8,747.3z"/>
</g>
</svg>
