<?xml version="1.0" encoding="utf-8"?>
<!-- Generator: Adobe Illustrator 19.1.0, SVG Export Plug-In . SVG Version: 6.00 Build 0)  -->
<svg version="1.1" id="Layer_1" xmlns="http://www.w3.org/2000/svg" xmlns:xlink="http://www.w3.org/1999/xlink" x="0px" y="0px"
	 viewBox="0 0 197 160" style="enable-background:new 0 0 197 160;" xml:space="preserve">
<style type="text/css">
	.st0{fill:#FFFFFF;}
</style>
<g>
	<path class="st0" d="M146.6,158.8c0,0.8,0,0.7,0.6,0.7c0.6,0,0.6,0.1,0.6-0.7c0-0.4,0-0.5-0.4-0.5c-0.1,0-0.1,0-0.2,0
		c-0.1,0-0.1,0-0.2,0C146.6,158.3,146.6,158.3,146.6,158.8 M131.3,152.7c0,0.8,0,1.6,0,2.4c0,0.9,0,1.8,0,2.7c0,1,0.4,1.6,1.3,1.9
		c1.2,0.4,2.4,0.4,3.6,0c0.5-0.2,1-0.5,1.1-1.1c0.1-0.5,0.1-1.1,0.1-1.7c0-0.1-0.2-0.2-0.3-0.2c-0.2,0-0.4,0-0.6,0
		c-0.4,0-0.4,0.1-0.4,0.5c0,0.2,0,0.3,0,0.5c0,0.6-0.3,1-0.9,1.1c-0.4,0.1-0.9,0.1-1.3,0.1c-0.9-0.1-1.2-0.5-1.2-1.4
		c0-1.3,0-2.7,0-4c0-0.3,0-0.6,0-0.8c0-0.6,0.3-0.9,0.8-1c0.4-0.1,0.9-0.1,1.4-0.1c0.9,0.1,1.3,0.5,1.3,1.4c0,0.4,0,0.5,0.5,0.5
		c1,0,0.9,0.1,0.9-0.9c0-1.1-0.5-1.8-1.6-2.1c-0.9-0.2-1.8-0.2-2.7-0.1C132,150.6,131.3,151.3,131.3,152.7 M120.4,150.8
		c0,2.9,0,5.7,0,8.6c0,0.4,0,0.5,0.5,0.5c1.4,0,2.8,0,4.2,0c0.8,0,0.7,0,0.7-0.7c0-0.4,0-0.4-0.4-0.4c-1.1,0-2.2,0-3.3,0h-0.3v-3.2
		c0,0,0.1,0,0.1,0c1,0,1.9,0,2.9,0c0.7,0,0.7,0,0.7-0.7c0-0.3-0.1-0.4-0.4-0.4c-1,0-2,0-3,0c-0.1,0-0.2,0-0.3,0v-2.8h0.3
		c1,0,1.9,0,2.9,0c0.7,0,0.7,0.1,0.7-0.7c0-0.4,0-0.5-0.4-0.5c-1.4,0-2.9,0-4.3,0C120.4,150.4,120.4,150.4,120.4,150.8 M113.6,150.8
		c0,2.9,0,5.8,0,8.6c0,0.4,0.1,0.4,0.4,0.4c1.3,0,2.7,0,4,0c0.8,0,0.8,0,0.8-0.8c0-0.4,0-0.4-0.4-0.4c-0.4,0-0.9,0-1.3,0H115v-0.4
		c0-2.5,0-5,0-7.5c0-0.4,0-0.4-0.4-0.4c-0.2,0-0.3,0-0.5,0C113.7,150.4,113.6,150.4,113.6,150.8 M113.2,101.3c0,12.9,0,25.8,0,38.7
		c0,1.4,0.2,1.7,1.6,1.7c3.8,0,11.7,0,11.8,0c0.7,0,1.1-0.4,1.1-1.1c0-0.6,0-1.3,0-1.9c0-2.4,0-2.4-2.4-2.4h-5.6v-13.7
		c0.3,0,4,0,5.6,0c1.2,0,1.5-0.3,1.5-1.6c0-0.8,0-1.6,0-2.4c0-1.1-0.3-1.4-1.3-1.4c-1.6,0-5.5,0-5.8-0.1v-11.9c0.2,0,4.4,0,6.3-0.1
		c1.1,0,1.3-0.3,1.4-1.4c0-0.8,0-1.6,0-2.4c0-1.4-0.3-1.7-1.7-1.7c-3.7,0-7.3,0-11,0C113.5,99.6,113.2,99.8,113.2,101.3
		 M105.7,155.1c0,0.9,0,1.8,0,2.8c0,0.9,0.4,1.5,1.3,1.9c1,0.3,2,0.3,2.9,0.2c1.3-0.2,1.9-0.9,1.9-2.3c0-1,0.2-0.9-1-0.9
		c0,0,0,0,0,0c-0.2,0-0.3,0.1-0.3,0.3c0,0.2,0,0.4,0,0.6c0,0.6-0.3,1.1-0.9,1.2c-0.4,0.1-0.9,0.1-1.3,0c-0.9-0.1-1.2-0.5-1.2-1.4
		c0-1.4,0-2.7,0-4.1c0-0.3,0-0.5,0-0.8c0-0.5,0.3-0.8,0.7-0.9c0.5-0.1,0.9-0.2,1.4-0.1c0.9,0.1,1.4,0.4,1.3,1.5c0,0,0,0.1,0,0.1
		c0,0.3,0.1,0.4,0.4,0.4c0.2,0,0.4,0,0.6,0c0.3,0,0.4-0.1,0.4-0.4c0-0.2,0-0.3,0-0.5c0-1.1-0.5-1.8-1.6-2.1c-0.9-0.2-1.9-0.2-2.8,0
		c-1.2,0.3-1.7,0.9-1.7,2.2C105.7,153.4,105.7,154.3,105.7,155.1L105.7,155.1z M97.8,150.7c0.9,1.8,1.7,3.5,2.6,5.3
		c0.1,0.2,0.1,0.4,0.1,0.6c0,0.8,0,1.6,0,2.4c0,1-0.1,0.9,0.9,0.9c0.4,0,0.4,0,0.4-0.4c0-1,0-2.1,0-3.1c0-0.1,0-0.3,0.1-0.4
		c0.9-1.7,1.7-3.5,2.6-5.2c0-0.1,0.1-0.1,0.1-0.3c-0.3,0-0.6,0-0.9,0c-0.3,0-0.5,0.1-0.6,0.4c-0.7,1.4-1.4,2.7-2,4.1
		c-0.6-1.4-1.3-2.7-1.9-4.1c-0.1-0.1-0.2-0.3-0.4-0.3c-0.3,0-0.6,0-0.9,0C97.8,150.4,97.7,150.5,97.8,150.7 M90.8,152.7
		c0,0.8,0,1.6,0,2.4c0,0.9,0,1.8,0,2.7c0,1,0.4,1.6,1.3,1.9c1.2,0.4,2.4,0.4,3.6,0c0.5-0.2,1-0.5,1.1-1.1c0.1-0.5,0.1-1.1,0.1-1.7
		c0-0.1-0.2-0.2-0.3-0.2c-0.2,0-0.4,0-0.6,0c-0.4,0-0.4,0.1-0.4,0.5c0,0.2,0,0.3,0,0.5c0,0.6-0.3,1-0.9,1.1
		c-0.4,0.1-0.9,0.1-1.3,0.1c-0.9-0.1-1.2-0.5-1.2-1.4c0-1.3,0-2.7,0-4c0-0.3,0-0.6,0-0.8c0-0.6,0.3-0.9,0.8-1
		c0.4-0.1,0.9-0.1,1.4-0.1c0.9,0.1,1.3,0.5,1.3,1.4c0,0.4,0,0.5,0.5,0.5c1,0,0.9,0.1,0.9-0.9c0-1.1-0.5-1.8-1.6-2.1
		c-0.9-0.2-1.8-0.2-2.7-0.1C91.4,150.6,90.7,151.3,90.8,152.7 M90.4,141.6c1.1,0,1.5-0.4,1.6-1.5c0.1-1.1,0.2-2.1,0.3-3.2
		c0.6-6.2,1.3-12.5,1.9-18.7c0.1-1.3,0.2-2.6,0.3-3.8c0.1,0.3,0.2,0.6,0.2,0.9c0.1,1.6,0.3,3.1,0.4,4.7c0.7,6.7,1.3,13.4,2,20.1
		c0.1,1.2,0.5,1.6,1.7,1.6c1.4,0,2.8,0,4.2,0c1.1,0,1.5-0.4,1.7-1.5c0.6-4.7,4.7-36.1,5.1-39.3c0.1-0.6-0.1-1.1-0.8-1.1
		c-1.3,0-2.6,0-3.9,0c-0.8,0-1.2,0.5-1.3,1.3c-0.1,1.2-0.3,2.4-0.4,3.5c-0.7,5.8-1.4,11.7-2,17.5c-0.1,1.3-0.3,2.5-0.4,3.8
		c-0.2-0.6-0.2-1.3-0.3-1.9c-0.7-7.6-1.5-15.2-2.2-22.8c-0.1-1.1-0.5-1.5-1.5-1.5c-1.4,0-2.8,0-4.2,0c-1.1,0-1.5,0.4-1.6,1.6
		c-0.1,1.1-0.2,2.3-0.3,3.4c-0.5,5.5-1.1,11-1.6,16.6c-0.2,1.6-0.3,3.2-0.4,4.8c0,0-0.1,0-0.1,0c-0.2-1.6-0.3-3.3-0.5-4.9
		c-0.7-6.6-1.5-13.2-2.3-19.8c-0.1-1.1-0.5-1.5-1.6-1.5c-1.2,0-2.4,0-3.6,0c-1.1,0-1.3,0.3-1.2,1.4c0.5,3.9,3,23.6,3.8,29.5
		c0.4,3.2,0.8,6.5,1.3,9.7c0.1,1,0.6,1.4,1.6,1.4C87.5,141.6,88.9,141.6,90.4,141.6 M84,151.5c0.9,0.1,1.7,0.1,2.6,0.2
		c0.7,0.1,0.9,0.5,0.9,1.2c0,0.3,0,0.6,0,0.9c0,0.5-0.3,0.8-0.7,1c-0.2,0.1-0.4,0.1-0.6,0.1c-0.7,0-1.4,0-2.1,0V151.5z M82.7,159
		c0,1-0.1,0.9,0.9,0.9c0.4,0,0.4,0,0.4-0.4c0-1,0-2,0-3c0-0.1,0-0.2,0-0.3c0.6,0,1.2,0,1.8,0c0.1,0,0.2,0.1,0.2,0.2
		c0.4,1,0.9,1.9,1.3,2.9c0.2,0.5,0.5,0.7,1.1,0.7c0.6-0.1,0.6-0.1,0.4-0.6c-0.5-1.1-1-2.2-1.5-3.3c0.1-0.1,0.2-0.1,0.3-0.1
		c0.9-0.4,1.3-0.9,1.3-1.9c0-0.5,0-1.1,0-1.6c0-0.5-0.2-1-0.7-1.3c-0.4-0.3-0.9-0.6-1.4-0.6c-1.2-0.1-2.4-0.1-3.6-0.1
		c-0.5,0-0.5,0-0.5,0.5C82.7,153.6,82.7,156.3,82.7,159 M75.6,152.7c0-0.6,0.3-1,0.9-1.2c0.6-0.2,1.1-0.2,1.7,0c0.7,0.2,1,0.5,1,1.3
		c0,0.8,0,1.6,0,2.4c0,0.7,0,1.4,0,2.2c0,0.9-0.3,1.3-1.2,1.5c-0.5,0.1-1,0-1.4-0.1c-0.6-0.1-1-0.5-1-1.2
		C75.6,155.9,75.6,154.3,75.6,152.7 M74.2,152.8c0,0.8,0,1.6,0,2.4c0,0.8,0,1.7,0,2.5c0,1.1,0.5,1.8,1.6,2.1c1,0.3,2.1,0.3,3.2,0
		c1.1-0.3,1.6-1,1.6-2.1c0-1.7,0-3.4,0-5.1c0-1.1-0.5-1.8-1.6-2.1c-0.9-0.3-1.8-0.3-2.8-0.1C75,150.6,74.1,151.2,74.2,152.8
		 M66.8,151.1c0,0.3,0.1,0.4,0.4,0.4c0.7,0,1.4,0,2.1,0v0.4c0,2.5,0,5,0,7.5c0,0.4,0,0.5,0.4,0.5c0.2,0,0.3,0,0.5,0
		c0.4,0,0.4,0,0.4-0.5c0-2.5,0-5,0-7.5v-0.4h1.8c0.7,0,0.7,0,0.7-0.7c0-0.4,0-0.5-0.5-0.5c-1.7,0-3.4,0-5.1,0
		C66.7,150.4,66.8,150.3,66.8,151.1 M66.2,139.5c0,0.3,0,0.6,0,0.9c0.1,0.9,0.3,1.2,1.3,1.2c1.1,0,2.1,0,3.2,0c1.9,0,2-0.1,2-2
		c0-11.2,0-34.1,0-34.5c0.5,0,3.2,0,4.3,0c0.6,0,1-0.2,1.1-0.9c0-1.2,0.1-2.4,0-3.5c0-0.3-0.4-0.7-0.8-0.9
		c-0.3-0.2-14.9-0.1-15.1-0.1c-0.8,0-1.2,0.4-1.1,1.2c0,0.2,0,0.5,0,0.7c0.1,4-0.6,3.6,3.5,3.6c0.5,0,1.1,0,1.7,0
		C66.2,105.6,66.2,128.4,66.2,139.5 M60.7,152.7c0-0.6,0.3-1,0.9-1.2c0.6-0.2,1.2-0.2,1.8,0c0.7,0.2,1,0.5,1,1.2c0,0.8,0,1.6,0,2.4
		c0,0.7,0,1.4,0,2.2c0,1-0.5,1.4-1.3,1.5c-0.4,0.1-0.9,0-1.4-0.1c-0.7-0.1-1-0.5-1-1.2C60.7,155.9,60.7,154.3,60.7,152.7
		 M59.3,152.8c0,0.8,0,1.6,0,2.4c0,0.8,0,1.7,0,2.5c0,1.3,0.7,1.9,1.5,2.1c1.1,0.3,2.1,0.3,3.2,0c1.1-0.3,1.6-1,1.6-2.1
		c0-1.7,0-3.4,0-5.1c0-1.1-0.5-1.8-1.6-2.1c-0.9-0.3-1.8-0.3-2.8-0.1C60.1,150.6,59.2,151.2,59.3,152.8 M49.3,159
		c0,0.9-0.1,0.8,0.8,0.8c0.4,0,0.4,0,0.4-0.5c0-1.9,0-3.8,0-5.8c0-0.1,0-0.1,0-0.2c0.6,1.5,1.2,2.9,1.8,4.3c0.3,0.8,0.3,0.6,1,0.7
		c0.3,0,0.5-0.1,0.6-0.4c0.3-0.7,0.5-1.3,0.8-2c0.4-0.9,0.7-1.8,1.1-2.6c0,0,0,0,0,0v0.2c0,1.8,0,3.6,0,5.4c0,0.8-0.1,0.8,0.8,0.8
		c0.5,0,0.5,0,0.5-0.5c0-2.7,0-5.3,0-8c0-1.1,0.1-0.9-1-1c-0.2,0-0.3,0.1-0.4,0.3c-0.6,1.3-1.1,2.7-1.7,4c-0.3,0.7-0.6,1.5-0.9,2.3
		c-0.1-0.3-0.2-0.6-0.3-0.9c-0.7-1.7-1.4-3.4-2.2-5.1c-0.3-0.7-0.1-0.6-0.9-0.6c-0.5,0-0.5,0-0.5,0.6
		C49.3,153.6,49.3,156.3,49.3,159 M11.5,117.5c0,1.2-0.7,1.9-1.9,2.1c-0.3,0.1-0.7,0.1-1,0.1c-0.7,0-1.4,0-2.1,0v-14.5
		c1.1,0,2.1-0.1,3.1,0c1.2,0.1,1.9,0.9,1.9,2.2C11.6,110.7,11.6,114.1,11.5,117.5 M18.2,140.3c-0.1-0.6-0.2-1.2-0.4-1.8
		c-1-4.7-2.1-9.4-3.1-14.1c-0.1-0.3,0-0.8,0.3-0.9c1.9-1.4,3-3.3,3-5.6c0.1-3.7,0.2-7.4,0-11.1c-0.2-3.6-2.4-6-5.8-6.8
		c-3.7-0.8-7.4-0.3-11.2-0.3c-0.6,0-0.9,0.4-0.9,1c0,0.3,0,0.7,0,1c0,12.6,0,25.1,0,37.7c0,0.3,0,0.6,0,0.9c0,1,0.3,1.3,1.3,1.3
		c1.2,0,2.4,0,3.5,0c1.3,0,1.6-0.3,1.6-1.6c0-3.7,0-7.4,0-11.1v-3.8c0.4,0,0.8,0,1.1,0c0.7-0.1,0.9,0.2,1.1,0.9
		c0.4,2.4,0.9,4.8,1.4,7.2c0.5,2.4,1,4.8,1.4,7.2c0.1,0.7,0.4,1.2,1.2,1.2c1.5,0,3,0,4.5,0C18,141.5,18.3,141.1,18.2,140.3
		 M33.9,107.1c0,9,0,18,0,27c0,1.7-0.9,2.5-2.6,2.5c-1.8,0-2.6-0.8-2.6-2.6c0-4.5,0-8.9,0-13.4c0-4.5,0-8.9,0-13.4
		c0-1.7,0.8-2.5,2.5-2.6C33,104.6,33.9,105.4,33.9,107.1 M40.5,120.6L40.5,120.6c0-4.6,0-9.2,0-13.7c0-3.6-2.1-6.4-5.5-7.3
		c-2.5-0.7-5-0.7-7.5,0.1c-1.9,0.6-3.4,1.7-4.4,3.6c-0.7,1.4-0.9,3-0.9,4.6c0,7,0,13.9,0,20.9c0,1.9,0,3.7,0,5.6
		c0.1,3.6,2,6.2,5,7.2c2.1,0.7,4.3,0.8,6.4,0.4c4.6-0.8,6.8-3.5,6.9-8.1C40.5,129.4,40.5,125,40.5,120.6 M58.1,99.6
		c-4.5,0-14.2,0-14.5,0.1c-0.3,0.2-0.7,0.5-0.7,0.8c-0.1,1.3-0.1,2.5,0,3.8c0,0.6,0.5,0.8,1,0.8c1.1,0,3.8,0,4.2,0
		c0,0.5,0,23.3,0,34.4c0,0.3,0,0.5,0,0.8c0,0.9,0.3,1.2,1.2,1.3c1,0,2.1,0,3.1,0c2,0,2.1-0.1,2.1-2.1c0-11.1,0-34,0-34.4
		c0.4,0,3.1,0,4.2,0c0.8,0,1.2-0.4,1.1-1.2c0-0.8,0-1.7,0-2.5C59.9,99.8,59.6,99.6,58.1,99.6 M128.7,64.9L128.7,64.9
		c-6.7,9.9-18,16.5-30.8,16.5c-20.6,0-37.3-16.8-37.3-37.6c0-20.7,16.7-37.6,37.3-37.6c12.8,0,24.1,6.5,30.8,16.5l0,0
		c0.2,0.2,0.4,0.4,0.7,0.4c0.2,0,0.3-0.1,0.5-0.2l3.2-2.2l0.5-0.4c0.3-0.2,0.4-0.4,0.4-0.8c0-0.2-0.1-0.3-0.2-0.5
		c0,0-0.2-0.4-0.4-0.5C125.6,7.4,112.6,0,97.9,0C73.8,0,54.3,19.6,54.3,43.8c0,24.2,19.5,43.8,43.6,43.8c14.7,0,27.7-7.4,35.6-18.7
		c0.1-0.2,0.4-0.5,0.4-0.5c0.1-0.1,0.2-0.3,0.2-0.5c0-0.3-0.2-0.6-0.4-0.8l-0.5-0.4l-3.2-2.2c-0.1-0.1-0.3-0.2-0.5-0.2
		C129.1,64.5,128.9,64.7,128.7,64.9 M90.5,41.1c0-2.6,0-5.3,0-8c0-1.5-1-2.5-2.5-2.5c-0.9,0-1.7,0-2.6-0.1c-0.5,0-0.7,0.2-0.7,0.7
		c0,3.9,0,7.9,0,11.8c0,0.2,0,0.4,0,0.6c1.2,0,2.3,0.1,3.4,0C89.7,43.5,90.5,42.6,90.5,41.1 M116.3,60.3c-0.5,0-1,0-1.5,0
		c-1,0-1.2-0.2-1.3-1.2c-0.2-1.5-0.4-2.9-0.5-4.4c-0.7-5.5-1.4-11-2.1-16.5c-0.1-0.5-0.1-1.1-0.2-1.6c-0.2,0.8-0.2,1.6-0.3,2.3
		c-0.4,3.5-0.8,7-1.2,10.5c-0.4,3.3-0.8,6.6-1.1,9.9c-0.1,0.7-0.3,0.9-1,0.9c-0.7,0-1.5,0-2.2,0c-0.8,0-1-0.2-1.1-0.9
		c-0.3-2.2-0.5-4.3-0.8-6.5c-0.5-3.9-0.9-7.7-1.3-11.6c-0.2-1.6-0.3-3.1-0.5-4.7c0,0,0,0-0.1,0c-0.4,3-0.7,5.9-1.1,8.9
		c-0.6,4.6-1.2,9.3-1.8,13.9c-0.1,0.8-0.3,0.9-1,0.9c-0.6,0-1.1,0-1.7,0c0,0-0.1,0-0.1,0h-2v0c-0.6,0-1.2,0-1.7,0
		c-0.6,0-0.9-0.3-1-0.8c-0.4-1.9-0.9-3.8-1.4-5.7c-0.5-2.1-1-4.2-1.5-6.3c0-0.2-0.3-0.4-0.4-0.4c-0.8,0-1.5,0-2.4,0v0.8
		c0,3.8,0,7.5,0,11.3c0,1.1-0.1,1.2-1.2,1.2c-0.5,0-1.1,0-1.6,0c-0.5,0-0.8-0.2-0.8-0.8c0-0.2,0-0.4,0-0.6c0-10.1,0-20.1,0-30.2
		c0-0.2,0-0.4,0-0.7c0-0.4,0.3-0.7,0.7-0.7c2.4,0,4.8-0.1,7.1,0.1c3.1,0.2,5.1,2.3,5.2,5.5c0.1,2.9,0.1,5.8,0,8.7
		c-0.1,1.9-0.8,3.5-2.6,4.4c-0.4,0.2-0.3,0.5-0.3,0.8c0.8,3.4,1.7,6.8,2.5,10.2c0.1,0.3,0.1,0.5,0.2,0.8l0,0c0,0.1,0.2,0.3,0.3,0.3
		c0.2,0,0.3-0.1,0.3-0.3l0,0c0.4-2.9,0.8-5.9,1.2-8.8c0.6-4.7,1.2-9.3,1.9-14c0.3-2.2,0.6-4.5,0.9-6.7c0.1-0.5,0.3-0.8,0.8-0.8
		c0.9,0,1.8,0,2.8,0c0.5,0,0.7,0.3,0.8,0.8c0,0.2,0.1,0.5,0.1,0.7c0.4,3,0.7,5.9,1.1,8.9c0.5,4,1,8.1,1.5,12.1
		c0.1,0.5,0.1,1,0.1,1.5c0.1-0.4,0.2-0.8,0.2-1.3c0.3-2.9,0.7-5.7,1-8.6c0.5-4.4,1-8.9,1.6-13.3c0.1-0.7,0.4-1,1.1-1
		c0.8,0,1.5,0,2.3,0c0.7,0,1,0.3,1.1,1c0.5,4,1.1,8,1.6,11.9c0.6,4.6,1.2,9.2,1.8,13.8c0.2,1.8,0.5,3.6,0.7,5.4
		C117,60,116.9,60.3,116.3,60.3 M128.7,43.8c0-17.1-13.8-31-30.8-31c-17,0-30.8,13.9-30.8,31c0,17.1,13.8,31,30.8,31
		C114.9,74.9,128.7,61,128.7,43.8 M138.3,140.3c0-0.2,0-39.4,0-39.7c0-0.6-0.3-1-0.9-1c-1.6,0-3.1,0-4.7,0c-0.6,0-0.8,0.4-0.9,0.9
		c0,0.3,0,34.7,0,39.5c0,1.2,0.3,1.4,1.3,1.5c1.3,0,2.6,0,3.9,0C138,141.6,138.2,141.3,138.3,140.3 M143.9,152.7c0,0.8,0,1.6,0,2.4
		c0,0.7,0,1.4,0,2.2c0,1-0.5,1.4-1.3,1.5c-0.4,0.1-0.9,0-1.4-0.1c-0.7-0.1-1-0.5-1-1.2c0-1.6,0-3.2,0-4.8c0-0.6,0.3-1,0.9-1.2
		c0.6-0.2,1.2-0.2,1.8,0C143.6,151.7,143.9,152,143.9,152.7 M143.7,150.5c-0.9-0.3-1.8-0.3-2.8-0.1c-1.2,0.2-2.1,0.9-2,2.4
		c0,0.8,0,1.6,0,2.4c0,0.8,0,1.7,0,2.5c0,1.3,0.7,1.9,1.5,2.1c1.1,0.3,2.1,0.3,3.2,0c1.1-0.3,1.6-1,1.6-2.1c0-1.7,0-3.4,0-5.1
		C145.3,151.4,144.7,150.7,143.7,150.5 M157.3,140.7c0-1.2,0-2.4,0-3.6c0-0.5-0.3-0.8-0.8-0.9c-0.3,0-4.6,0-6.5,0
		c0-0.4,0-34.8,0-35.1c0-1.1-0.3-1.4-1.4-1.4c-1.2,0-2.5,0-3.7,0c-1.2,0-1.5,0.3-1.5,1.5c0,13,0,25.9,0,38.9c0,1.3,0.3,1.6,1.6,1.6
		c3.6,0,11.2,0,11.4-0.1C156.9,141.5,157.2,141.2,157.3,140.7 M174.9,140.3c0-0.9,0-1.7,0-2.6c0-1.3-0.2-1.6-1.5-1.6
		c-1.9,0-3.8,0-5.7,0c-0.6,0-0.8-0.2-0.8-0.8c0-4,0-8,0-12.1c0-0.2,0-0.5,0.1-0.8h0.9c1.6,0,3.2,0,4.8,0c1.1,0,1.4-0.3,1.5-1.5
		c0-0.8,0-1.6,0-2.4c0-1.2-0.3-1.5-1.5-1.5c-1.6,0-3.2,0-4.8,0c-0.3,0-0.6,0-0.9,0v-12c0.4,0,4.5,0,6.3,0c1.1,0,1.3-0.3,1.4-1.4
		c0-0.8,0-1.6,0-2.4c0-1.5-0.3-1.7-1.7-1.7c-3.6,0-7.2,0-10.8,0c-1.5,0-1.7,0.2-1.7,1.7c0,0.1,0,38.7,0,39c0,0.9,0.3,1.3,1.2,1.3
		c4.1,0,8.1,0,12.2,0C174.6,141.6,174.9,141.3,174.9,140.3 M190.3,117.6c0,1-0.7,1.7-1.7,1.9c-1.1,0.1-2.2,0.1-3.3,0.2V105
		c1.2,0.1,2.4,0.1,3.5,0.3c0.9,0.2,1.4,0.9,1.5,1.8C190.4,110.6,190.4,114.1,190.3,117.6 M196.7,118.2c0.1-3.7,0.2-7.4,0.1-11
		c-0.2-4.5-3-7.1-7.4-7.4c-3.1-0.2-6.2-0.1-9.2-0.1c-1,0-1.2,0.3-1.3,1.3c0,0.3,0,0.5,0,0.8c0,12.6,0,38.3,0,38.6
		c0,1,0.3,1.3,1.3,1.3c1.2,0,2.4,0,3.5,0c1.4,0,1.6-0.3,1.6-1.7c0-4.6,0-14.5,0-14.8c1.9-0.2,2-0.2,2.3,1.5
		c0.9,4.4,1.7,8.8,2.6,13.1c0.3,1.6,0.5,1.8,2.1,1.8c1,0,2.1,0,3.1,0c1.4,0,1.7-0.4,1.4-1.8c-1.1-5.1-2.3-10.2-3.4-15.4
		c-0.1-0.4-0.1-0.7,0.3-0.9C195.6,122.2,196.7,120.4,196.7,118.2"/>
</g>
</svg>
