<?xml version="1.0" encoding="utf-8"?>
<!-- Generator: Adobe Illustrator 19.1.0, SVG Export Plug-In . SVG Version: 6.00 Build 0)  -->
<svg version="1.1" id="Layer_1" xmlns="http://www.w3.org/2000/svg" xmlns:xlink="http://www.w3.org/1999/xlink" x="0px" y="0px"
	 viewBox="0 0 24.2 24" style="enable-background:new 0 0 24.2 24;" xml:space="preserve">
<style type="text/css">
	.st0{fill:#FFFFFF;}
</style>
<path class="st0" d="M19,7.4c0.4,0,0.8,0,1.3,0c0.7,0,1.1-0.4,1.2-1.1c0-0.8,0-1.7,0-2.5c0-0.7-0.5-1.1-1.1-1.1c-0.9,0-1.7,0-2.6,0
	c-0.6,0-1.1,0.4-1.1,1c0,0.9,0,1.7,0,2.6c0,0.7,0.5,1,1.1,1C18.1,7.4,18.5,7.4,19,7.4 M16.9,12c0-2.6-2.1-4.6-4.7-4.6
	c-2.7,0-4.8,2-4.8,4.6c0,2.5,2.2,4.6,4.8,4.6C14.8,16.6,16.9,14.5,16.9,12 M4.8,10.2c-0.5,0-1,0-1.5,0c-0.4,0-0.6,0.1-0.6,0.6
	c0,3.1,0,6.2,0,9.2c0,0.8,0.3,1.2,1.2,1.2c5.4,0,10.8,0,16.2,0c0.9,0,1.2-0.3,1.2-1.2c0-2.5,0-4.9,0-7.4c0-0.6,0-1.3,0-1.9
	c0-0.1-0.1-0.4-0.2-0.4c-0.6,0-1.1,0-1.7,0c1.4,5.1-2.8,9.2-7.2,9.2C7.8,19.5,3.4,15.4,4.8,10.2 M24.2,12c0,2.9,0,5.8,0,8.7
	c0,1.9-1.3,3.3-3.3,3.3C15,24,9.2,24,3.3,24c-2,0-3.3-1.3-3.3-3.3C0,14.9,0,9.1,0,3.3C0,1.3,1.3,0,3.3,0C9.2,0,15,0,20.9,0
	c2,0,3.3,1.3,3.3,3.3C24.2,6.2,24.2,9.1,24.2,12L24.2,12z"/>
</svg>
