<?xml version="1.0" encoding="utf-8"?>
<!-- Generator: Adobe Illustrator 19.1.0, SVG Export Plug-In . SVG Version: 6.00 Build 0)  -->
<svg version="1.1" id="Layer_1" xmlns="http://www.w3.org/2000/svg" xmlns:xlink="http://www.w3.org/1999/xlink" x="0px" y="0px"
	 viewBox="0 0 11.8 24" style="enable-background:new 0 0 11.8 24;" xml:space="preserve">
<style type="text/css">
	.st0{fill:#FFFFFF;}
</style>
<path class="st0" d="M7.4,18.3c0,1.7,0,3.5,0,5.2C7.4,23.9,7.3,24,7,24c-1.2,0-2.4,0-3.6,0C3,24,3,24,3,23.6c0-1.4,0-2.7,0-4.1
	c0-2.1,0-4.2,0-6.3c0-0.4,0-0.4-0.4-0.4c-0.7,0-1.5,0-2.2,0c-0.3,0-0.3-0.1-0.3-0.3c0-1.1,0-2.3,0-3.4c0-0.3,0.1-0.4,0.4-0.4
	c0.7,0,1.4,0,2.2,0C3,8.6,3,8.6,3,8.2c0-0.9,0-1.9,0-2.8c0-1,0.2-2,0.8-2.9c0.8-1.3,2-2,3.5-2.3C8.4-0.1,9.6,0,10.9,0.1
	c0.2,0,0.5,0,0.7,0.1c0.1,0,0.2,0.2,0.2,0.2c0,1.1,0,2.2-0.1,3.4C11.7,4,11.5,4,11.4,4c-0.5,0-1,0-1.4,0C9.4,4,8.8,4,8.3,4.1
	c-0.5,0.1-0.8,0.4-0.9,1c0,0.3-0.1,0.7-0.1,1c0,0.7,0,1.5,0,2.2c0,0.3,0.1,0.4,0.4,0.4c1.2,0,2.4,0,3.6,0c0.4,0,0.4,0,0.4,0.4
	c0,1.1-0.1,2.2-0.1,3.3c0,0.2-0.1,0.4-0.4,0.4c-1.2,0-2.4,0-3.6,0c-0.3,0-0.3,0.1-0.3,0.3C7.4,14.8,7.4,16.6,7.4,18.3"/>
</svg>
