<?xml version="1.0" encoding="utf-8"?>
<!-- Generator: Adobe Illustrator 19.1.0, SVG Export Plug-In . SVG Version: 6.00 Build 0)  -->
<svg version="1.1" id="Layer_1" xmlns="http://www.w3.org/2000/svg" xmlns:xlink="http://www.w3.org/1999/xlink" x="0px" y="0px"
	 viewBox="0 0 20 19" style="enable-background:new 0 0 20 19;" xml:space="preserve">
<style type="text/css">
	.st0{clip-path:url(#SVGID_2_);}
	.st1{fill:#FFFFFF;}
</style>
<g>
	<path class="st1" d="M10.3,8.7c2.6-2.8,5.1-5.5,7.7-8.3c0.5-0.6,0.7-0.6,1.3,0c1,1.1,1,1.1,0,2.2c-2.1,2.2-4.2,4.5-6.4,6.9
		c2.2,2.4,4.3,4.6,6.4,6.9c1,1.1,1,1.1,0,2.2c-0.5,0.6-0.8,0.6-1.3,0c-2.6-2.8-5.1-5.5-7.7-8.3C9.9,9.9,9.9,9.1,10.3,8.7z"/>
	<path class="st1" d="M9.7,8.7C7.2,5.9,4.6,3.2,2.1,0.4c-0.5-0.6-0.7-0.6-1.3,0c-1,1.1-1,1.1,0,2.2c2.1,2.2,4.2,4.5,6.4,6.9
		c-2.2,2.4-4.3,4.6-6.4,6.9c-1,1.1-1,1.1,0,2.2c0.5,0.6,0.8,0.6,1.3,0c2.6-2.8,5.1-5.5,7.7-8.3C10.1,9.9,10.1,9.1,9.7,8.7z"/>
</g>
</svg>
