<?xml version="1.0" encoding="utf-8"?>
<!-- Generator: Adobe Illustrator 19.1.0, SVG Export Plug-In . SVG Version: 6.00 Build 0)  -->
<svg version="1.1" id="Layer_1" xmlns="http://www.w3.org/2000/svg" xmlns:xlink="http://www.w3.org/1999/xlink" x="0px" y="0px"
	 viewBox="0 0 150 60" style="enable-background:new 0 0 150 60;" xml:space="preserve">
<style type="text/css">
	.st0{clip-path:url(#SVGID_2_);fill:#FFFFFF;}
	.st1{clip-path:url(#SVGID_2_);fill:none;stroke:#F0EDE9;stroke-width:4;stroke-miterlimit:10;}
	.st2{clip-path:url(#SVGID_4_);fill:#FFFFFF;}
	.st3{clip-path:url(#SVGID_6_);fill:#333333;}
	.st4{clip-path:url(#SVGID_8_);fill:#FFFFFF;}
	.st5{clip-path:url(#SVGID_10_);fill:#333333;}
	.st6{clip-path:url(#SVGID_12_);fill:#FFFFFF;}
	.st7{clip-path:url(#SVGID_14_);fill:#333333;}
	.st8{clip-path:url(#SVGID_16_);fill:#FFFFFF;}
	.st9{clip-path:url(#SVGID_18_);fill:#333333;}
	.st10{clip-path:url(#SVGID_20_);fill:#FFFFFF;}
	.st11{clip-path:url(#SVGID_22_);fill:#333333;}
</style>
<g>
	<defs>
		<rect id="SVGID_3_" x="30" width="30" height="30"/>
	</defs>
	<clipPath id="SVGID_2_">
		<use xlink:href="#SVGID_3_"  style="overflow:visible;"/>
	</clipPath>
	<path class="st0" d="M46.1,19.9c0,1.4,0,2.7,0,4.1c0,0.2-0.1,0.3-0.3,0.3c-0.9,0-1.8,0-2.7,0c-0.3,0-0.3,0-0.3-0.3
		c0-1.1,0-2.1,0-3.2c0-1.6,0-3.2,0-4.9c0-0.3,0-0.3-0.3-0.3c-0.6,0-1.1,0-1.7,0c-0.2,0-0.3-0.1-0.3-0.3c0-0.9,0-1.8,0-2.6
		c0-0.2,0.1-0.3,0.3-0.3c0.6,0,1.1,0,1.7,0c0.3,0,0.3,0,0.3-0.3c0-0.7,0-1.5,0-2.2c0-0.8,0.1-1.6,0.6-2.3c0.6-1,1.5-1.5,2.6-1.7
		c0.9-0.2,1.9-0.1,2.8-0.1c0.2,0,0.4,0,0.5,0.1c0.1,0,0.2,0.1,0.2,0.2c0,0.9,0,1.7,0,2.6c0,0.2-0.1,0.2-0.3,0.2c-0.4,0-0.7,0-1.1,0
		c-0.4,0-0.8,0-1.2,0.1c-0.4,0.1-0.6,0.3-0.7,0.7c0,0.3,0,0.5,0,0.8c0,0.6,0,1.2,0,1.7c0,0.2,0.1,0.3,0.3,0.3c0.9,0,1.8,0,2.8,0
		c0.3,0,0.3,0,0.3,0.3c0,0.9-0.1,1.7-0.1,2.6c0,0.2-0.1,0.3-0.3,0.3c-0.9,0-1.8,0-2.7,0c-0.2,0-0.2,0.1-0.2,0.2
		C46.1,17.2,46.1,18.5,46.1,19.9"/>
</g>
<g>
	<defs>
		<rect id="SVGID_5_" x="30" y="30" width="30" height="30"/>
	</defs>
	<clipPath id="SVGID_4_">
		<use xlink:href="#SVGID_5_"  style="overflow:visible;"/>
	</clipPath>
	<path style="clip-path:url(#SVGID_4_);fill:#333333;" d="M46.1,49.9c0,1.4,0,2.7,0,4c0,0.2-0.1,0.3-0.3,0.3c-0.9,0-1.8,0-2.7,0
		c-0.3,0-0.3,0-0.3-0.3c0-1.1,0-2.1,0-3.2c0-1.6,0-3.2,0-4.9c0-0.3,0-0.3-0.3-0.3c-0.6,0-1.1,0-1.7,0c-0.2,0-0.3-0.1-0.3-0.3
		c0-0.9,0-1.8,0-2.6c0-0.2,0.1-0.3,0.3-0.3c0.6,0,1.1,0,1.7,0c0.3,0,0.3,0,0.3-0.3c0-0.7,0-1.5,0-2.2c0-0.8,0.1-1.6,0.6-2.3
		c0.6-1,1.5-1.5,2.6-1.7c0.9-0.2,1.9-0.1,2.8-0.1c0.2,0,0.4,0,0.5,0.1c0.1,0,0.2,0.1,0.2,0.2c0,0.9,0,1.7,0,2.6
		c0,0.2-0.1,0.2-0.3,0.2c-0.4,0-0.7,0-1.1,0c-0.4,0-0.8,0-1.2,0.1c-0.4,0.1-0.6,0.3-0.7,0.7c0,0.3,0,0.5,0,0.8c0,0.6,0,1.2,0,1.7
		c0,0.2,0.1,0.3,0.3,0.3c0.9,0,1.8,0,2.8,0c0.3,0,0.3,0,0.3,0.3c0,0.9-0.1,1.7-0.1,2.6c0,0.2-0.1,0.3-0.3,0.3c-0.9,0-1.8,0-2.7,0
		c-0.2,0-0.2,0.1-0.2,0.2C46.1,47.2,46.1,48.5,46.1,49.9"/>
</g>
<g>
	<defs>
		<rect id="SVGID_7_" x="90" width="30" height="30"/>
	</defs>
	<clipPath id="SVGID_6_">
		<use xlink:href="#SVGID_7_"  style="overflow:visible;"/>
	</clipPath>
	<path style="clip-path:url(#SVGID_6_);fill:#FFFFFF;" d="M114.3,10.4c0,0.9-0.3,1.8-0.6,2.7c-0.6,1.4-1.4,2.6-2.2,3.8
		c-0.8,1.2-1.7,2.3-2.7,3.4c-0.8,0.9-1.7,1.7-2.8,2.3c-0.5,0.3-1.1,0.5-1.7,0.5c-0.5,0-1-0.2-1.4-0.5c-0.4-0.3-0.6-0.7-0.9-1.2
		c-0.4-0.7-0.7-1.5-0.9-2.2c-0.2-0.9-0.5-1.8-0.7-2.7c-0.2-0.9-0.5-1.8-0.7-2.6c-0.2-0.6-0.4-1.2-0.8-1.7c-0.1-0.2-0.2-0.3-0.4-0.4
		c-0.2-0.1-0.4-0.2-0.6-0.1c-0.4,0.2-0.7,0.4-1.1,0.7c-0.1,0.1-0.2,0.1-0.3,0c-0.2-0.3-0.4-0.6-0.6-0.8c-0.1-0.2-0.1-0.2,0-0.3
		c0.6-0.5,1.2-1.1,1.8-1.6c0.5-0.5,1.1-1,1.7-1.4c0.4-0.3,0.9-0.6,1.3-0.8c0.9-0.3,1.9,0,2.4,0.8c0.3,0.5,0.5,1.1,0.6,1.7
		c0.2,1,0.3,2,0.5,2.9c0.2,1,0.4,2.1,0.7,3.1c0.1,0.4,0.3,0.8,0.5,1.1c0,0,0.1,0.1,0.1,0.1c0.2,0.3,0.5,0.3,0.8,0.1
		c0.3-0.3,0.6-0.6,0.9-0.9c0.6-0.8,1-1.6,1.4-2.4c0.2-0.4,0.3-0.8,0.3-1.3c0-0.2,0-0.4-0.1-0.6c-0.1-0.5-0.5-0.8-1.1-0.8
		c-0.5,0-0.9,0.1-1.3,0.2c0,0-0.1,0.1-0.1,0c-0.1,0,0-0.1,0-0.1c0.2-0.6,0.4-1.2,0.8-1.7c0.6-1,1.4-1.8,2.5-2.2
		c0.8-0.3,1.6-0.3,2.4-0.2c0.5,0.1,0.9,0.2,1.3,0.5c0.5,0.4,0.7,0.9,0.8,1.5C114.2,9.4,114.3,9.9,114.3,10.4"/>
</g>
<g>
	<defs>
		<rect id="SVGID_9_" x="90" y="30" width="30" height="30"/>
	</defs>
	<clipPath id="SVGID_8_">
		<use xlink:href="#SVGID_9_"  style="overflow:visible;"/>
	</clipPath>
	<path style="clip-path:url(#SVGID_8_);fill:#333333;" d="M114.3,40.4c0,0.9-0.3,1.8-0.6,2.7c-0.6,1.4-1.4,2.6-2.2,3.8
		c-0.8,1.2-1.7,2.3-2.7,3.4c-0.8,0.9-1.7,1.7-2.8,2.3c-0.5,0.3-1.1,0.5-1.7,0.5c-0.5,0-1-0.2-1.4-0.5c-0.4-0.3-0.6-0.7-0.9-1.2
		c-0.4-0.7-0.7-1.5-0.9-2.2c-0.2-0.9-0.5-1.8-0.7-2.7c-0.2-0.9-0.5-1.8-0.7-2.6c-0.2-0.6-0.4-1.2-0.8-1.7c-0.1-0.2-0.2-0.3-0.4-0.4
		c-0.2-0.1-0.4-0.2-0.6-0.1c-0.4,0.2-0.7,0.4-1.1,0.7c-0.1,0.1-0.2,0.1-0.3,0c-0.2-0.3-0.4-0.6-0.6-0.8c-0.1-0.2-0.1-0.2,0-0.3
		c0.6-0.5,1.2-1.1,1.8-1.6c0.5-0.5,1.1-1,1.7-1.4c0.4-0.3,0.9-0.6,1.3-0.8c0.9-0.3,1.9,0,2.4,0.8c0.3,0.5,0.5,1.1,0.6,1.7
		c0.2,1,0.3,2,0.5,2.9c0.2,1,0.4,2.1,0.7,3.1c0.1,0.4,0.3,0.8,0.5,1.1c0,0,0.1,0.1,0.1,0.1c0.2,0.3,0.5,0.3,0.8,0.1
		c0.3-0.3,0.6-0.6,0.9-0.9c0.6-0.8,1-1.6,1.4-2.4c0.2-0.4,0.3-0.8,0.3-1.3c0-0.2,0-0.4-0.1-0.6c-0.1-0.5-0.5-0.8-1.1-0.8
		c-0.5,0-0.9,0.1-1.3,0.2c0,0-0.1,0.1-0.1,0c-0.1,0,0-0.1,0-0.1c0.2-0.6,0.4-1.2,0.8-1.7c0.6-1,1.4-1.8,2.5-2.2
		c0.8-0.3,1.6-0.3,2.4-0.2c0.5,0.1,0.9,0.2,1.3,0.5c0.5,0.4,0.7,0.9,0.8,1.5C114.2,39.4,114.3,39.9,114.3,40.4"/>
</g>
<g>
	<defs>
		<rect id="SVGID_11_" x="120" width="30" height="30"/>
	</defs>
	<clipPath id="SVGID_10_">
		<use xlink:href="#SVGID_11_"  style="overflow:visible;"/>
	</clipPath>
	<path style="clip-path:url(#SVGID_10_);fill:#FFFFFF;" d="M134.7,12.2c0,0-4.7-0.2-7.8-4.1c-0.5,1-1.3,3,0.9,5.1
		c-1.4-0.4-1.5-0.4-1.5-0.4s-0.5,2.2,2.8,3.8c-0.8,0.1-1.4,0-1.4,0s0.4,2.2,3.4,2.7c-1.5,1.1-3.9,1.8-5.4,1.6
		c1.7,1.3,6.7,2.7,10.5,0.7c3.8-1.9,6-5.6,6.2-9.6c0-0.8,0.4-1.4,1.8-2.7c-0.5,0.1-1.8,0.4-1.8,0.4s1.1-0.9,1.3-2.2
		c-0.7,0.5-2.1,1.1-2.3,1c-0.2-0.1-2.3-2.4-4.9-0.7C134.8,9.3,134.6,10.6,134.7,12.2"/>
</g>
<g>
	<defs>
		<rect id="SVGID_13_" x="120" y="30" width="30" height="30"/>
	</defs>
	<clipPath id="SVGID_12_">
		<use xlink:href="#SVGID_13_"  style="overflow:visible;"/>
	</clipPath>
	<path style="clip-path:url(#SVGID_12_);fill:#333333;" d="M134.7,42.2c0,0-4.7-0.2-7.8-4.1c-0.5,1-1.3,3,0.9,5.1
		c-1.4-0.4-1.5-0.4-1.5-0.4s-0.5,2.2,2.8,3.8c-0.8,0.1-1.4,0-1.4,0s0.4,2.2,3.4,2.7c-1.5,1.1-3.9,1.8-5.4,1.6
		c1.7,1.3,6.7,2.7,10.5,0.7c3.8-1.9,6-5.6,6.2-9.6c0-0.8,0.4-1.4,1.8-2.7c-0.5,0.1-1.8,0.4-1.8,0.4s1.1-0.9,1.3-2.2
		c-0.7,0.5-2.1,1.1-2.3,1c-0.2-0.1-2.3-2.4-4.9-0.7C134.8,39.3,134.6,40.6,134.7,42.2"/>
</g>
<g>
	<defs>
		<rect id="SVGID_15_" x="60" width="30" height="30"/>
	</defs>
	<clipPath id="SVGID_14_">
		<use xlink:href="#SVGID_15_"  style="overflow:visible;"/>
	</clipPath>
	<path style="clip-path:url(#SVGID_14_);fill:#FFFFFF;" d="M84.2,19.9c-0.2,0.3-0.5,0.4-0.9,0.5c-0.4,0.1-0.8,0.2-1.3,0.3
		c-0.3,0-0.4,0.2-0.5,0.4c-0.1,0.2-0.1,0.3-0.1,0.5c0,0.3-0.2,0.3-0.4,0.3c-0.3,0-0.7-0.1-1-0.1c-0.9-0.1-1.7,0.2-2.4,0.8
		c-0.5,0.4-1.1,0.7-1.7,0.9c-1,0.3-1.9,0-2.8-0.5c-0.4-0.3-0.8-0.6-1.3-0.8c-0.4-0.2-0.8-0.4-1.3-0.4c-0.5,0-1,0.1-1.5,0.1
		c-0.3,0-0.5,0-0.5-0.3c0-0.1,0-0.1,0-0.2c-0.1-0.6-0.2-0.7-0.8-0.8c-0.5-0.1-1-0.2-1.4-0.4c-0.2-0.1-0.3-0.2-0.5-0.3
		c0.8-0.1,1.4-0.4,2-0.8c1-0.7,1.8-1.7,2.2-2.8c0.3-0.6,0-1.2-0.6-1.4c-0.3-0.1-0.7-0.3-1-0.4c-0.1-0.1-0.3-0.1-0.4-0.2
		c-0.1-0.1-0.3-0.3-0.2-0.4c0.1-0.1,0.3-0.2,0.4-0.3c0.1,0,0.3,0,0.4,0.1c0.5,0.2,1,0.3,1.5,0c0.1-0.1,0.2-0.2,0.2-0.3
		c0-0.7-0.1-1.4-0.1-2.1c0-1.2,0.2-2.4,1.1-3.4c0.8-0.8,1.7-1.3,2.9-1.5c1.3-0.3,2.6,0,3.7,0.7c1,0.6,1.8,1.6,1.9,2.9
		c0.1,0.9,0,1.8,0,2.7c0,0.3,0,0.5,0,0.8c0,0.1,0.1,0.1,0.2,0.2c0.5,0.3,1,0.1,1.4-0.1c0.2-0.1,0.4-0.1,0.6,0c0.3,0.1,0.3,0.4,0,0.6
		c-0.2,0.1-0.5,0.2-0.7,0.3c-0.3,0.1-0.6,0.2-0.9,0.4c-0.5,0.3-0.7,0.8-0.4,1.4c0.5,1.2,1.3,2.2,2.3,2.8c0.5,0.3,1,0.5,1.5,0.7
		C84,19.9,84.1,19.9,84.2,19.9"/>
</g>
<g>
	<defs>
		<rect id="SVGID_17_" x="60" y="30" width="30" height="30"/>
	</defs>
	<clipPath id="SVGID_16_">
		<use xlink:href="#SVGID_17_"  style="overflow:visible;"/>
	</clipPath>
	<path style="clip-path:url(#SVGID_16_);fill:#333333;" d="M84.2,49.9c-0.2,0.3-0.5,0.4-0.9,0.5c-0.4,0.1-0.8,0.2-1.3,0.3
		c-0.3,0-0.4,0.2-0.5,0.4c-0.1,0.2-0.1,0.3-0.1,0.5c0,0.3-0.2,0.3-0.4,0.3c-0.3,0-0.7-0.1-1-0.1c-0.9-0.1-1.7,0.2-2.4,0.8
		c-0.5,0.4-1.1,0.7-1.7,0.9c-1,0.3-1.9,0-2.8-0.5c-0.4-0.3-0.8-0.6-1.3-0.8c-0.4-0.2-0.8-0.4-1.3-0.4c-0.5,0-1,0.1-1.5,0.1
		c-0.3,0-0.5,0-0.5-0.3c0-0.1,0-0.1,0-0.2c-0.1-0.6-0.2-0.7-0.8-0.8c-0.5-0.1-1-0.2-1.4-0.4c-0.2-0.1-0.3-0.2-0.5-0.3
		c0.8-0.1,1.4-0.4,2-0.8c1-0.7,1.8-1.7,2.2-2.8c0.3-0.6,0-1.2-0.6-1.4c-0.3-0.1-0.7-0.3-1-0.4c-0.1-0.1-0.3-0.1-0.4-0.2
		c-0.1-0.1-0.3-0.3-0.2-0.4c0.1-0.1,0.3-0.2,0.4-0.3c0.1,0,0.3,0,0.4,0.1c0.5,0.2,1,0.3,1.5,0c0.1-0.1,0.2-0.2,0.2-0.3
		c0-0.7-0.1-1.4-0.1-2.1c0-1.2,0.2-2.4,1.1-3.4c0.8-0.8,1.7-1.3,2.9-1.5c1.3-0.3,2.6,0,3.7,0.7c1,0.6,1.8,1.6,1.9,2.9
		c0.1,0.9,0,1.8,0,2.7c0,0.3,0,0.5,0,0.8c0,0.1,0.1,0.1,0.2,0.2c0.5,0.3,1,0.1,1.4-0.1c0.2-0.1,0.4-0.1,0.6,0c0.3,0.1,0.3,0.4,0,0.6
		c-0.2,0.1-0.5,0.2-0.7,0.3c-0.3,0.1-0.6,0.2-0.9,0.4c-0.5,0.3-0.7,0.8-0.4,1.4c0.5,1.2,1.3,2.2,2.3,2.8c0.5,0.3,1,0.5,1.5,0.7
		C84,49.9,84.1,49.9,84.2,49.9"/>
</g>
<g>
	<defs>
		<rect id="SVGID_19_" width="30" height="30"/>
	</defs>
	<clipPath id="SVGID_18_">
		<use xlink:href="#SVGID_19_"  style="overflow:visible;"/>
	</clipPath>
	<path style="clip-path:url(#SVGID_18_);fill:#FFFFFF;" d="M20.3,11.4c0.3,0,0.6,0,1,0c0.5,0,0.9-0.3,0.9-0.8c0-0.6,0-1.3,0-1.9
		c0-0.5-0.3-0.8-0.9-0.8c-0.7,0-1.3,0-2,0c-0.5,0-0.8,0.3-0.8,0.8c0,0.7,0,1.3,0,2c0,0.5,0.4,0.8,0.9,0.8
		C19.6,11.4,19.9,11.4,20.3,11.4 M18.7,15c0-2-1.6-3.6-3.6-3.6c-2,0-3.7,1.6-3.7,3.6c0,2,1.7,3.6,3.7,3.6C17,18.5,18.7,16.9,18.7,15
		 M9.4,13.6c-0.4,0-0.8,0-1.1,0c-0.3,0-0.5,0.1-0.5,0.4c0,2.4,0,4.8,0,7.1c0,0.6,0.3,0.9,0.9,0.9c4.1,0,8.3,0,12.4,0
		c0.7,0,0.9-0.2,0.9-1c0-1.9,0-3.8,0-5.7c0-0.5,0-1,0-1.5c0-0.1-0.1-0.3-0.2-0.3c-0.4,0-0.9,0-1.3,0c1,3.9-2.2,7.1-5.5,7.1
		C11.7,20.8,8.4,17.6,9.4,13.6 M24.3,15c0,2.2,0,4.5,0,6.7c0,1.5-1,2.5-2.5,2.5c-4.5,0-9,0-13.5,0c-1.5,0-2.5-1-2.5-2.6
		c0-4.5,0-9,0-13.4c0-1.5,1-2.6,2.6-2.6c4.5,0,9,0,13.4,0c1.6,0,2.6,1,2.6,2.6C24.3,10.5,24.3,12.8,24.3,15L24.3,15z"/>
</g>
<g>
	<defs>
		<rect id="SVGID_21_" y="30" width="30" height="30"/>
	</defs>
	<clipPath id="SVGID_20_">
		<use xlink:href="#SVGID_21_"  style="overflow:visible;"/>
	</clipPath>
	<path style="clip-path:url(#SVGID_20_);fill:#333333;" d="M20.3,41.4c0.3,0,0.6,0,1,0c0.5,0,0.9-0.3,0.9-0.8c0-0.6,0-1.3,0-1.9
		c0-0.5-0.3-0.8-0.9-0.8c-0.7,0-1.3,0-2,0c-0.5,0-0.8,0.3-0.8,0.8c0,0.7,0,1.3,0,2c0,0.5,0.4,0.8,0.9,0.8
		C19.6,41.4,19.9,41.4,20.3,41.4 M18.7,45c0-2-1.6-3.6-3.6-3.6c-2,0-3.7,1.6-3.7,3.6c0,2,1.7,3.6,3.7,3.6C17,48.5,18.7,46.9,18.7,45
		 M9.4,43.6c-0.4,0-0.8,0-1.1,0c-0.3,0-0.5,0.1-0.5,0.4c0,2.4,0,4.8,0,7.1c0,0.6,0.3,0.9,0.9,0.9c4.1,0,8.3,0,12.4,0
		c0.7,0,0.9-0.2,0.9-1c0-1.9,0-3.8,0-5.7c0-0.5,0-1,0-1.5c0-0.1-0.1-0.3-0.2-0.3c-0.4,0-0.9,0-1.3,0c1,3.9-2.2,7.1-5.5,7.1
		C11.7,50.8,8.4,47.6,9.4,43.6 M24.3,45c0,2.2,0,4.5,0,6.7c0,1.5-1,2.5-2.5,2.5c-4.5,0-9,0-13.5,0c-1.5,0-2.5-1-2.5-2.6
		c0-4.5,0-9,0-13.4c0-1.5,1-2.6,2.6-2.6c4.5,0,9,0,13.4,0c1.6,0,2.6,1,2.6,2.6C24.3,40.5,24.3,42.8,24.3,45L24.3,45z"/>
</g>
</svg>
