<?xml version="1.0" encoding="utf-8"?>
<!-- Generator: Adobe Illustrator 19.1.0, SVG Export Plug-In . SVG Version: 6.00 Build 0)  -->
<svg version="1.1" id="Layer_1" xmlns="http://www.w3.org/2000/svg" xmlns:xlink="http://www.w3.org/1999/xlink" x="0px" y="0px"
	 viewBox="0 0 24 22.3" style="enable-background:new 0 0 24 22.3;" xml:space="preserve">
<style type="text/css">
	.st0{fill:#FFFFFF;}
</style>
<g>
	<path class="st0" d="M24,17.5c-0.3,0.4-0.7,0.5-1.1,0.6c-0.5,0.2-1.1,0.3-1.6,0.4c-0.4,0.1-0.5,0.3-0.6,0.6
		c-0.1,0.2-0.1,0.4-0.2,0.6c0,0.4-0.3,0.4-0.6,0.4c-0.4,0-0.9-0.1-1.3-0.1c-1.2-0.1-2.2,0.3-3.2,1c-0.7,0.5-1.4,1-2.3,1.2
		c-1.3,0.3-2.5,0-3.6-0.6c-0.6-0.3-1.1-0.7-1.6-1.1c-0.5-0.3-1.1-0.5-1.6-0.5c-0.7,0-1.3,0.1-2,0.1c-0.3,0-0.6,0-0.6-0.4
		c0-0.1,0-0.2,0-0.2c-0.1-0.7-0.3-0.8-1-1c-0.6-0.1-1.3-0.3-1.9-0.5c-0.2-0.1-0.4-0.3-0.7-0.4c1-0.2,1.9-0.5,2.6-1.1
		c1.3-1,2.3-2.2,2.9-3.6c0.3-0.8-0.1-1.6-0.8-1.9c-0.4-0.2-0.9-0.3-1.4-0.5c-0.2-0.1-0.3-0.1-0.5-0.2C2.8,10,2.6,9.8,2.7,9.7
		C2.8,9.5,3,9.4,3.2,9.3c0.1,0,0.3,0.1,0.5,0.1C4.4,9.6,5,9.9,5.6,9.5c0.1-0.1,0.2-0.2,0.2-0.4c0-0.9-0.1-1.8-0.1-2.7
		c0-1.6,0.3-3.1,1.4-4.4c1-1.1,2.3-1.7,3.7-2c1.8-0.3,3.3,0,4.8,0.9c1.4,0.8,2.4,2,2.5,3.7c0.1,1.1,0,2.3,0,3.5c0,0.3,0,0.7,0,1
		c0,0.1,0.1,0.2,0.2,0.2c0.6,0.4,1.3,0.1,1.9-0.1c0.3-0.1,0.6-0.1,0.8,0c0.4,0.2,0.4,0.5,0.1,0.7c-0.3,0.2-0.6,0.3-0.9,0.4
		c-0.4,0.2-0.8,0.3-1.2,0.5c-0.7,0.4-0.9,1-0.6,1.8c0.7,1.5,1.6,2.8,3,3.7c0.6,0.4,1.3,0.6,2,0.9C23.7,17.4,23.8,17.5,24,17.5"/>
</g>
</svg>
