<?xml version="1.0" encoding="utf-8"?>
<!-- Generator: Adobe Illustrator 19.1.0, SVG Export Plug-In . SVG Version: 6.00 Build 0)  -->
<svg version="1.1" id="Layer_1" xmlns="http://www.w3.org/2000/svg" xmlns:xlink="http://www.w3.org/1999/xlink" x="0px" y="0px"
	 viewBox="0 0 23.3 19.4" style="enable-background:new 0 0 23.3 19.4;" xml:space="preserve">
<style type="text/css">
	.st0{fill:#FFFFFF;}
</style>
<g>
	<path class="st0" d="M11.3,6.1c0,0-5.9-0.2-9.8-5.1C0.8,2.3-0.1,4.8,2.7,7.4C0.9,6.9,0.8,6.9,0.8,6.9s-0.6,2.8,3.5,4.8
		c-1,0.1-1.7,0-1.7,0s0.5,2.8,4.3,3.4c-1.9,1.4-5,2.2-6.8,2c2.2,1.6,8.4,3.4,13.2,0.9c4.8-2.4,7.6-7,7.8-12.1c0-1,0.5-1.8,2.3-3.4
		C22.7,2.8,21,3.1,21,3.1s1.3-1.1,1.6-2.7C21.8,1,20,1.7,19.7,1.6c-0.3-0.1-2.9-3-6.2-0.8C11.4,2.5,11.2,4.1,11.3,6.1"/>
</g>
</svg>
