<?xml version="1.0" encoding="utf-8"?>
<!-- Generator: Adobe Illustrator 19.1.0, SVG Export Plug-In . SVG Version: 6.00 Build 0)  -->
<svg version="1.1" id="Layer_1" xmlns="http://www.w3.org/2000/svg" xmlns:xlink="http://www.w3.org/1999/xlink" x="0px" y="0px"
	 viewBox="-230 367 150 60" style="enable-background:new -230 367 150 60;" xml:space="preserve">
<style type="text/css">
	.st0{clip-path:url(#SVGID_2_);fill:#FFFFFF;}
	.st1{clip-path:url(#SVGID_4_);fill:#333333;}
	.st2{clip-path:url(#SVGID_6_);fill:#FFFFFF;}
	.st3{clip-path:url(#SVGID_8_);fill:#333333;}
	.st4{clip-path:url(#SVGID_10_);fill:#FFFFFF;}
	.st5{clip-path:url(#SVGID_12_);fill:#333333;}
	.st6{clip-path:url(#SVGID_14_);fill:#FFFFFF;}
	.st7{clip-path:url(#SVGID_16_);fill:#333333;}
	.st8{fill:#333333;}
	.st9{fill:#FFFFFF;}
</style>
<g>
	<g>
		<defs>
			<rect id="SVGID_1_" x="-200" y="367" width="30" height="30"/>
		</defs>
		<clipPath id="SVGID_2_">
			<use xlink:href="#SVGID_1_"  style="overflow:visible;"/>
		</clipPath>
		<path class="st0" d="M-183.9,386.9c0,1.4,0,2.7,0,4.1c0,0.2-0.1,0.3-0.3,0.3c-0.9,0-1.8,0-2.7,0c-0.3,0-0.3,0-0.3-0.3
			c0-1.1,0-2.1,0-3.2c0-1.6,0-3.2,0-4.9c0-0.3,0-0.3-0.3-0.3c-0.6,0-1.1,0-1.7,0c-0.2,0-0.3-0.1-0.3-0.3c0-0.9,0-1.8,0-2.6
			c0-0.2,0.1-0.3,0.3-0.3c0.6,0,1.1,0,1.7,0c0.3,0,0.3,0,0.3-0.3c0-0.7,0-1.5,0-2.2c0-0.8,0.1-1.6,0.6-2.3c0.6-1,1.5-1.5,2.6-1.7
			c0.9-0.2,1.9-0.1,2.8-0.1c0.2,0,0.4,0,0.5,0.1c0.1,0,0.2,0.1,0.2,0.2c0,0.9,0,1.7,0,2.6c0,0.2-0.1,0.2-0.3,0.2c-0.4,0-0.7,0-1.1,0
			c-0.4,0-0.8,0-1.2,0.1c-0.4,0.1-0.6,0.3-0.7,0.7c0,0.3,0,0.5,0,0.8c0,0.6,0,1.2,0,1.7c0,0.2,0.1,0.3,0.3,0.3c0.9,0,1.8,0,2.8,0
			c0.3,0,0.3,0,0.3,0.3c0,0.9-0.1,1.7-0.1,2.6c0,0.2-0.1,0.3-0.3,0.3c-0.9,0-1.8,0-2.7,0c-0.2,0-0.2,0.1-0.2,0.2
			C-183.9,384.2-183.9,385.5-183.9,386.9"/>
	</g>
</g>
<g>
	<g>
		<defs>
			<rect id="SVGID_3_" x="-200" y="397" width="30" height="30"/>
		</defs>
		<clipPath id="SVGID_4_">
			<use xlink:href="#SVGID_3_"  style="overflow:visible;"/>
		</clipPath>
		<path class="st1" d="M-183.9,416.9c0,1.4,0,2.7,0,4c0,0.2-0.1,0.3-0.3,0.3c-0.9,0-1.8,0-2.7,0c-0.3,0-0.3,0-0.3-0.3
			c0-1.1,0-2.1,0-3.2c0-1.6,0-3.2,0-4.9c0-0.3,0-0.3-0.3-0.3c-0.6,0-1.1,0-1.7,0c-0.2,0-0.3-0.1-0.3-0.3c0-0.9,0-1.8,0-2.6
			c0-0.2,0.1-0.3,0.3-0.3c0.6,0,1.1,0,1.7,0c0.3,0,0.3,0,0.3-0.3c0-0.7,0-1.5,0-2.2c0-0.8,0.1-1.6,0.6-2.3c0.6-1,1.5-1.5,2.6-1.7
			c0.9-0.2,1.9-0.1,2.8-0.1c0.2,0,0.4,0,0.5,0.1c0.1,0,0.2,0.1,0.2,0.2c0,0.9,0,1.7,0,2.6c0,0.2-0.1,0.2-0.3,0.2c-0.4,0-0.7,0-1.1,0
			c-0.4,0-0.8,0-1.2,0.1c-0.4,0.1-0.6,0.3-0.7,0.7c0,0.3,0,0.5,0,0.8c0,0.6,0,1.2,0,1.7c0,0.2,0.1,0.3,0.3,0.3c0.9,0,1.8,0,2.8,0
			c0.3,0,0.3,0,0.3,0.3c0,0.9-0.1,1.7-0.1,2.6c0,0.2-0.1,0.3-0.3,0.3c-0.9,0-1.8,0-2.7,0c-0.2,0-0.2,0.1-0.2,0.2
			C-183.9,414.2-183.9,415.5-183.9,416.9"/>
	</g>
</g>
<g>
	<g>
		<defs>
			<rect id="SVGID_5_" x="-140" y="367" width="30" height="30"/>
		</defs>
		<clipPath id="SVGID_6_">
			<use xlink:href="#SVGID_5_"  style="overflow:visible;"/>
		</clipPath>
		<path class="st2" d="M-115.7,377.4c0,0.9-0.3,1.8-0.6,2.7c-0.6,1.4-1.4,2.6-2.2,3.8c-0.8,1.2-1.7,2.3-2.7,3.4
			c-0.8,0.9-1.7,1.7-2.8,2.3c-0.5,0.3-1.1,0.5-1.7,0.5c-0.5,0-1-0.2-1.4-0.5c-0.4-0.3-0.6-0.7-0.9-1.2c-0.4-0.7-0.7-1.5-0.9-2.2
			c-0.2-0.9-0.5-1.8-0.7-2.7s-0.5-1.8-0.7-2.6c-0.2-0.6-0.4-1.2-0.8-1.7c-0.1-0.2-0.2-0.3-0.4-0.4c-0.2-0.1-0.4-0.2-0.6-0.1
			c-0.4,0.2-0.7,0.4-1.1,0.7c-0.1,0.1-0.2,0.1-0.3,0c-0.2-0.3-0.4-0.6-0.6-0.8c-0.1-0.2-0.1-0.2,0-0.3c0.6-0.5,1.2-1.1,1.8-1.6
			c0.5-0.5,1.1-1,1.7-1.4c0.4-0.3,0.9-0.6,1.3-0.8c0.9-0.3,1.9,0,2.4,0.8c0.3,0.5,0.5,1.1,0.6,1.7c0.2,1,0.3,2,0.5,2.9
			c0.2,1,0.4,2.1,0.7,3.1c0.1,0.4,0.3,0.8,0.5,1.1l0.1,0.1c0.2,0.3,0.5,0.3,0.8,0.1c0.3-0.3,0.6-0.6,0.9-0.9c0.6-0.8,1-1.6,1.4-2.4
			c0.2-0.4,0.3-0.8,0.3-1.3c0-0.2,0-0.4-0.1-0.6c-0.1-0.5-0.5-0.8-1.1-0.8c-0.5,0-0.9,0.1-1.3,0.2c0,0-0.1,0.1-0.1,0
			c-0.1,0,0-0.1,0-0.1c0.2-0.6,0.4-1.2,0.8-1.7c0.6-1,1.4-1.8,2.5-2.2c0.8-0.3,1.6-0.3,2.4-0.2c0.5,0.1,0.9,0.2,1.3,0.5
			c0.5,0.4,0.7,0.9,0.8,1.5C-115.8,376.4-115.7,376.9-115.7,377.4"/>
	</g>
</g>
<g>
	<g>
		<defs>
			<rect id="SVGID_7_" x="-140" y="397" width="30" height="30"/>
		</defs>
		<clipPath id="SVGID_8_">
			<use xlink:href="#SVGID_7_"  style="overflow:visible;"/>
		</clipPath>
		<path class="st3" d="M-115.7,407.4c0,0.9-0.3,1.8-0.6,2.7c-0.6,1.4-1.4,2.6-2.2,3.8c-0.8,1.2-1.7,2.3-2.7,3.4
			c-0.8,0.9-1.7,1.7-2.8,2.3c-0.5,0.3-1.1,0.5-1.7,0.5c-0.5,0-1-0.2-1.4-0.5c-0.4-0.3-0.6-0.7-0.9-1.2c-0.4-0.7-0.7-1.5-0.9-2.2
			c-0.2-0.9-0.5-1.8-0.7-2.7s-0.5-1.8-0.7-2.6c-0.2-0.6-0.4-1.2-0.8-1.7c-0.1-0.2-0.2-0.3-0.4-0.4c-0.2-0.1-0.4-0.2-0.6-0.1
			c-0.4,0.2-0.7,0.4-1.1,0.7c-0.1,0.1-0.2,0.1-0.3,0c-0.2-0.3-0.4-0.6-0.6-0.8c-0.1-0.2-0.1-0.2,0-0.3c0.6-0.5,1.2-1.1,1.8-1.6
			c0.5-0.5,1.1-1,1.7-1.4c0.4-0.3,0.9-0.6,1.3-0.8c0.9-0.3,1.9,0,2.4,0.8c0.3,0.5,0.5,1.1,0.6,1.7c0.2,1,0.3,2,0.5,2.9
			c0.2,1,0.4,2.1,0.7,3.1c0.1,0.4,0.3,0.8,0.5,1.1l0.1,0.1c0.2,0.3,0.5,0.3,0.8,0.1c0.3-0.3,0.6-0.6,0.9-0.9c0.6-0.8,1-1.6,1.4-2.4
			c0.2-0.4,0.3-0.8,0.3-1.3c0-0.2,0-0.4-0.1-0.6c-0.1-0.5-0.5-0.8-1.1-0.8c-0.5,0-0.9,0.1-1.3,0.2c0,0-0.1,0.1-0.1,0
			c-0.1,0,0-0.1,0-0.1c0.2-0.6,0.4-1.2,0.8-1.7c0.6-1,1.4-1.8,2.5-2.2c0.8-0.3,1.6-0.3,2.4-0.2c0.5,0.1,0.9,0.2,1.3,0.5
			c0.5,0.4,0.7,0.9,0.8,1.5C-115.8,406.4-115.7,406.9-115.7,407.4"/>
	</g>
</g>
<g>
	<g>
		<defs>
			<rect id="SVGID_9_" x="-110" y="367" width="30" height="30"/>
		</defs>
		<clipPath id="SVGID_10_">
			<use xlink:href="#SVGID_9_"  style="overflow:visible;"/>
		</clipPath>
		<path class="st4" d="M-95.3,379.2c0,0-4.7-0.2-7.8-4.1c-0.5,1-1.3,3,0.9,5.1c-1.4-0.4-1.5-0.4-1.5-0.4s-0.5,2.2,2.8,3.8
			c-0.8,0.1-1.4,0-1.4,0s0.4,2.2,3.4,2.7c-1.5,1.1-3.9,1.8-5.4,1.6c1.7,1.3,6.7,2.7,10.5,0.7c3.8-1.9,6-5.6,6.2-9.6
			c0-0.8,0.4-1.4,1.8-2.7c-0.5,0.1-1.8,0.4-1.8,0.4s1.1-0.9,1.3-2.2c-0.7,0.5-2.1,1.1-2.3,1s-2.3-2.4-4.9-0.7
			C-95.2,376.3-95.4,377.6-95.3,379.2"/>
	</g>
</g>
<g>
	<g>
		<defs>
			<rect id="SVGID_11_" x="-110" y="397" width="30" height="30"/>
		</defs>
		<clipPath id="SVGID_12_">
			<use xlink:href="#SVGID_11_"  style="overflow:visible;"/>
		</clipPath>
		<path class="st5" d="M-95.3,409.2c0,0-4.7-0.2-7.8-4.1c-0.5,1-1.3,3,0.9,5.1c-1.4-0.4-1.5-0.4-1.5-0.4s-0.5,2.2,2.8,3.8
			c-0.8,0.1-1.4,0-1.4,0s0.4,2.2,3.4,2.7c-1.5,1.1-3.9,1.8-5.4,1.6c1.7,1.3,6.7,2.7,10.5,0.7c3.8-1.9,6-5.6,6.2-9.6
			c0-0.8,0.4-1.4,1.8-2.7c-0.5,0.1-1.8,0.4-1.8,0.4s1.1-0.9,1.3-2.2c-0.7,0.5-2.1,1.1-2.3,1s-2.3-2.4-4.9-0.7
			C-95.2,406.3-95.4,407.6-95.3,409.2"/>
	</g>
</g>
<g>
	<g>
		<defs>
			<rect id="SVGID_13_" x="-170" y="367" width="30" height="30"/>
		</defs>
		<clipPath id="SVGID_14_">
			<use xlink:href="#SVGID_13_"  style="overflow:visible;"/>
		</clipPath>
		<path class="st6" d="M-145.8,386.9c-0.2,0.3-0.5,0.4-0.9,0.5c-0.4,0.1-0.8,0.2-1.3,0.3c-0.3,0-0.4,0.2-0.5,0.4
			c-0.1,0.2-0.1,0.3-0.1,0.5c0,0.3-0.2,0.3-0.4,0.3c-0.3,0-0.7-0.1-1-0.1c-0.9-0.1-1.7,0.2-2.4,0.8c-0.5,0.4-1.1,0.7-1.7,0.9
			c-1,0.3-1.9,0-2.8-0.5c-0.4-0.3-0.8-0.6-1.3-0.8c-0.4-0.2-0.8-0.4-1.3-0.4s-1,0.1-1.5,0.1c-0.3,0-0.5,0-0.5-0.3c0-0.1,0-0.1,0-0.2
			c-0.1-0.6-0.2-0.7-0.8-0.8c-0.5-0.1-1-0.2-1.4-0.4c-0.2-0.1-0.3-0.2-0.5-0.3c0.8-0.1,1.4-0.4,2-0.8c1-0.7,1.8-1.7,2.2-2.8
			c0.3-0.6,0-1.2-0.6-1.4c-0.3-0.1-0.7-0.3-1-0.4c-0.1-0.1-0.3-0.1-0.4-0.2c-0.1-0.1-0.3-0.3-0.2-0.4c0.1-0.1,0.3-0.2,0.4-0.3
			c0.1,0,0.3,0,0.4,0.1c0.5,0.2,1,0.3,1.5,0c0.1-0.1,0.2-0.2,0.2-0.3c0-0.7-0.1-1.4-0.1-2.1c0-1.2,0.2-2.4,1.1-3.4
			c0.8-0.8,1.7-1.3,2.9-1.5c1.3-0.3,2.6,0,3.7,0.7c1,0.6,1.8,1.6,1.9,2.9c0.1,0.9,0,1.8,0,2.7c0,0.3,0,0.5,0,0.8
			c0,0.1,0.1,0.1,0.2,0.2c0.5,0.3,1,0.1,1.4-0.1c0.2-0.1,0.4-0.1,0.6,0c0.3,0.1,0.3,0.4,0,0.6c-0.2,0.1-0.5,0.2-0.7,0.3
			c-0.3,0.1-0.6,0.2-0.9,0.4c-0.5,0.3-0.7,0.8-0.4,1.4c0.5,1.2,1.3,2.2,2.3,2.8c0.5,0.3,1,0.5,1.5,0.7
			C-146,386.9-145.9,386.9-145.8,386.9"/>
	</g>
</g>
<g>
	<g>
		<defs>
			<rect id="SVGID_15_" x="-170" y="397" width="30" height="30"/>
		</defs>
		<clipPath id="SVGID_16_">
			<use xlink:href="#SVGID_15_"  style="overflow:visible;"/>
		</clipPath>
		<path class="st7" d="M-145.8,416.9c-0.2,0.3-0.5,0.4-0.9,0.5c-0.4,0.1-0.8,0.2-1.3,0.3c-0.3,0-0.4,0.2-0.5,0.4
			c-0.1,0.2-0.1,0.3-0.1,0.5c0,0.3-0.2,0.3-0.4,0.3c-0.3,0-0.7-0.1-1-0.1c-0.9-0.1-1.7,0.2-2.4,0.8c-0.5,0.4-1.1,0.7-1.7,0.9
			c-1,0.3-1.9,0-2.8-0.5c-0.4-0.3-0.8-0.6-1.3-0.8c-0.4-0.2-0.8-0.4-1.3-0.4s-1,0.1-1.5,0.1c-0.3,0-0.5,0-0.5-0.3c0-0.1,0-0.1,0-0.2
			c-0.1-0.6-0.2-0.7-0.8-0.8c-0.5-0.1-1-0.2-1.4-0.4c-0.2-0.1-0.3-0.2-0.5-0.3c0.8-0.1,1.4-0.4,2-0.8c1-0.7,1.8-1.7,2.2-2.8
			c0.3-0.6,0-1.2-0.6-1.4c-0.3-0.1-0.7-0.3-1-0.4c-0.1-0.1-0.3-0.1-0.4-0.2c-0.1-0.1-0.3-0.3-0.2-0.4c0.1-0.1,0.3-0.2,0.4-0.3
			c0.1,0,0.3,0,0.4,0.1c0.5,0.2,1,0.3,1.5,0c0.1-0.1,0.2-0.2,0.2-0.3c0-0.7-0.1-1.4-0.1-2.1c0-1.2,0.2-2.4,1.1-3.4
			c0.8-0.8,1.7-1.3,2.9-1.5c1.3-0.3,2.6,0,3.7,0.7c1,0.6,1.8,1.6,1.9,2.9c0.1,0.9,0,1.8,0,2.7c0,0.3,0,0.5,0,0.8
			c0,0.1,0.1,0.1,0.2,0.2c0.5,0.3,1,0.1,1.4-0.1c0.2-0.1,0.4-0.1,0.6,0c0.3,0.1,0.3,0.4,0,0.6c-0.2,0.1-0.5,0.2-0.7,0.3
			c-0.3,0.1-0.6,0.2-0.9,0.4c-0.5,0.3-0.7,0.8-0.4,1.4c0.5,1.2,1.3,2.2,2.3,2.8c0.5,0.3,1,0.5,1.5,0.7
			C-146,416.9-145.9,416.9-145.8,416.9"/>
	</g>
</g>
<g>
	<g>
		<defs>
			<rect id="SVGID_17_" x="-230" y="367" width="30" height="30"/>
		</defs>
		<clipPath id="SVGID_18_">
			<use xlink:href="#SVGID_17_"  style="overflow:visible;"/>
		</clipPath>
	</g>
</g>
<g>
	<g>
		<defs>
			<rect id="SVGID_19_" x="-230" y="397" width="30" height="30"/>
		</defs>
		<clipPath id="SVGID_20_">
			<use xlink:href="#SVGID_19_"  style="overflow:visible;"/>
		</clipPath>
	</g>
</g>
<g>
	<path class="st8" d="M-212.2,412c0,1.5-1.3,2.8-2.8,2.8c-1.5,0-2.8-1.3-2.8-2.8c0-1.6,1.3-2.8,2.8-2.8
		C-213.5,409.2-212.2,410.5-212.2,412 M-210.2,412c0-2.7-2.1-4.7-4.7-4.8c-2.7-0.1-4.9,2.1-4.9,4.7c0,2.7,2.1,4.8,4.8,4.8
		C-212.4,416.8-210.2,414.6-210.2,412 M-209.1,407.1c0-0.6-0.5-1.1-1.1-1.1c-0.6,0-1.1,0.5-1.1,1.1c0,0.6,0.5,1.1,1.1,1.1
		C-209.6,408.2-209.1,407.7-209.1,407.1 M-207.7,415.5c0,1.8-1.4,3.5-3.2,3.7c-0.2,0-0.5,0.1-0.7,0.1c-2.3,0-4.5,0-6.8,0
		c-2.1,0-3.9-1.7-3.9-3.8c0-2.3,0-4.6,0-6.8c0-1.9,1.3-3.5,3.1-3.8c0.2,0,0.5-0.1,0.7-0.1c1.1,0,2.3,0,3.4,0c1.1,0,2.3,0,3.4,0
		c1,0,1.9,0.3,2.6,1c0.8,0.8,1.3,1.7,1.3,2.9C-207.7,410.9-207.7,413.2-207.7,415.5 M-205.7,408.4c0-0.3,0-0.5-0.1-0.8
		c-0.5-2.9-2.9-4.9-5.8-4.9c-1.1,0-2.3,0-3.4,0c-1.1,0-2.3,0-3.4,0c-0.5,0-0.9,0.1-1.4,0.2c-2.6,0.6-4.5,3-4.5,5.7
		c0,2.3,0,4.6,0,6.9c0,0.4,0,0.7,0.1,1.1c0.5,2.7,2.9,4.8,5.7,4.8c2.3,0,4.6,0,6.9,0c1,0,1.9-0.2,2.8-0.7c2-1.1,3-2.8,3-5.1
		C-205.7,413.1-205.7,410.8-205.7,408.4"/>
</g>
<g>
	<path class="st9" d="M-212.2,382c0,1.5-1.3,2.8-2.8,2.8c-1.5,0-2.8-1.3-2.8-2.8c0-1.6,1.3-2.8,2.8-2.8
		C-213.5,379.2-212.2,380.5-212.2,382 M-210.2,382c0-2.7-2.1-4.7-4.7-4.8c-2.7-0.1-4.9,2.1-4.9,4.7c0,2.7,2.1,4.8,4.8,4.8
		C-212.4,386.8-210.2,384.6-210.2,382 M-209.1,377.1c0-0.6-0.5-1.1-1.1-1.1c-0.6,0-1.1,0.5-1.1,1.1c0,0.6,0.5,1.1,1.1,1.1
		C-209.6,378.2-209.1,377.7-209.1,377.1 M-207.7,385.5c0,1.8-1.4,3.5-3.2,3.7c-0.2,0-0.5,0.1-0.7,0.1c-2.3,0-4.5,0-6.8,0
		c-2.1,0-3.9-1.7-3.9-3.8c0-2.3,0-4.6,0-6.8c0-1.9,1.3-3.5,3.1-3.8c0.2,0,0.5-0.1,0.7-0.1c1.1,0,2.3,0,3.4,0c1.1,0,2.3,0,3.4,0
		c1,0,1.9,0.3,2.6,1c0.8,0.8,1.3,1.7,1.3,2.9C-207.7,380.9-207.7,383.2-207.7,385.5 M-205.7,378.4c0-0.3,0-0.5-0.1-0.8
		c-0.5-2.9-2.9-4.9-5.8-4.9c-1.1,0-2.3,0-3.4,0c-1.1,0-2.3,0-3.4,0c-0.5,0-0.9,0.1-1.4,0.2c-2.6,0.6-4.5,3-4.5,5.7
		c0,2.3,0,4.6,0,6.9c0,0.4,0,0.7,0.1,1.1c0.5,2.7,2.9,4.8,5.7,4.8c2.3,0,4.6,0,6.9,0c1,0,1.9-0.2,2.8-0.7c2-1.1,3-2.8,3-5.1
		C-205.7,383.1-205.7,380.8-205.7,378.4"/>
</g>
</svg>
