<?xml version="1.0" encoding="utf-8"?>
<!-- Generator: Adobe Illustrator 19.1.0, SVG Export Plug-In . SVG Version: 6.00 Build 0)  -->
<svg version="1.1" id="Layer_1" xmlns="http://www.w3.org/2000/svg" xmlns:xlink="http://www.w3.org/1999/xlink" x="0px" y="0px"
	 viewBox="0 0 73 73" style="enable-background:new 0 0 73 73;" xml:space="preserve">
<style type="text/css">
	.st0{clip-path:url(#SVGID_2_);fill:#FFFFFF;}
	.st1{clip-path:url(#SVGID_2_);fill:none;stroke:#F0EDE9;stroke-width:4;stroke-miterlimit:10;}
	.st2{clip-path:url(#SVGID_4_);fill:#FFFFFF;}
	.st3{clip-path:url(#SVGID_6_);fill:#333333;}
	.st4{clip-path:url(#SVGID_8_);fill:#FFFFFF;}
	.st5{clip-path:url(#SVGID_10_);fill:#333333;}
	.st6{clip-path:url(#SVGID_12_);fill:#FFFFFF;}
	.st7{clip-path:url(#SVGID_14_);fill:#333333;}
	.st8{clip-path:url(#SVGID_16_);fill:#FFFFFF;}
	.st9{clip-path:url(#SVGID_18_);fill:#333333;}
	.st10{clip-path:url(#SVGID_20_);fill:#FFFFFF;}
	.st11{clip-path:url(#SVGID_22_);fill:#333333;}
	.st12{fill:#FFFFFF;}
</style>
<g>
	<path class="st12" d="M62.5,54.1L62.5,54.1c-5.6,8.3-15.1,13.7-25.9,13.7c-17.3,0-31.4-14-31.4-31.3s14-31.3,31.4-31.3
		c10.8,0,20.3,5.4,25.9,13.7l0,0c0.1,0.2,0.4,0.3,0.6,0.3c0.2,0,0.3-0.1,0.4-0.1l2.7-1.8l0.4-0.3c0.2-0.1,0.3-0.4,0.3-0.6
		c0-0.2-0.1-0.3-0.1-0.4c0,0-0.2-0.3-0.3-0.4C59.9,6.1,49,0,36.6,0C16.4,0,0,16.3,0,36.5C0,56.7,16.4,73,36.6,73
		c12.4,0,23.3-6.1,29.9-15.5c0.1-0.1,0.3-0.4,0.3-0.4c0.1-0.1,0.1-0.3,0.1-0.4c0-0.3-0.1-0.5-0.3-0.6l-0.4-0.3l-2.7-1.8
		c-0.1-0.1-0.3-0.1-0.4-0.1C62.9,53.7,62.7,53.9,62.5,54.1"/>
</g>
</svg>
