<?xml version="1.0" encoding="utf-8"?>
<!-- Generator: Adobe Illustrator 19.1.0, SVG Export Plug-In . SVG Version: 6.00 Build 0)  -->
<svg version="1.1" id="Layer_1" xmlns="http://www.w3.org/2000/svg" xmlns:xlink="http://www.w3.org/1999/xlink" x="0px" y="0px"
	 viewBox="0 0 73 73" style="enable-background:new 0 0 73 73;" xml:space="preserve">
<style type="text/css">
	.st0{clip-path:url(#SVGID_2_);fill:#FFFFFF;}
	.st1{clip-path:url(#SVGID_2_);fill:none;stroke:#F0EDE9;stroke-width:4;stroke-miterlimit:10;}
	.st2{clip-path:url(#SVGID_4_);fill:#FFFFFF;}
	.st3{clip-path:url(#SVGID_6_);fill:#333333;}
	.st4{clip-path:url(#SVGID_8_);fill:#FFFFFF;}
	.st5{clip-path:url(#SVGID_10_);fill:#333333;}
	.st6{clip-path:url(#SVGID_12_);fill:#FFFFFF;}
	.st7{clip-path:url(#SVGID_14_);fill:#333333;}
	.st8{clip-path:url(#SVGID_16_);fill:#FFFFFF;}
	.st9{clip-path:url(#SVGID_18_);fill:#333333;}
	.st10{clip-path:url(#SVGID_20_);fill:#FFFFFF;}
	.st11{clip-path:url(#SVGID_22_);fill:#333333;}
	.st12{fill:#FFFFFF;}
</style>
<g>
	<path class="st12" d="M30.3,34.3c0-2.2,0-4.4,0-6.6c0-1.3-0.8-2-2.1-2.1c-0.7,0-1.4,0-2.2-0.1c-0.5,0-0.6,0.1-0.6,0.6
		c0,3.3,0,6.6,0,9.8c0,0.2,0,0.3,0,0.5c1,0,1.9,0.1,2.9,0C29.6,36.2,30.2,35.5,30.3,34.3 M52,50.2c-0.4,0-0.8,0-1.3,0
		c-0.9,0-1-0.1-1.1-1c-0.1-1.2-0.3-2.4-0.5-3.6c-0.6-4.6-1.2-9.2-1.8-13.7c-0.1-0.4-0.1-0.9-0.2-1.3c-0.2,0.7-0.2,1.3-0.3,2
		c-0.3,2.9-0.7,5.8-1,8.8c-0.3,2.7-0.6,5.5-1,8.2c-0.1,0.6-0.3,0.7-0.9,0.7c-0.6,0-1.2,0-1.9,0c-0.6,0-0.8-0.2-0.9-0.8
		c-0.2-1.8-0.4-3.6-0.6-5.4c-0.4-3.2-0.8-6.4-1.1-9.7c-0.2-1.3-0.3-2.6-0.4-3.9c0,0,0,0,0,0c-0.3,2.5-0.6,4.9-0.9,7.4
		c-0.5,3.9-1,7.7-1.5,11.6c-0.1,0.6-0.2,0.8-0.9,0.8c-0.5,0-0.9,0-1.4,0c0,0,0,0-0.1,0l-1.7,0l0,0c-0.5,0-1,0-1.5,0
		c-0.5,0-0.7-0.2-0.9-0.7c-0.4-1.6-0.8-3.2-1.1-4.8c-0.4-1.8-0.8-3.5-1.2-5.3c0-0.1-0.2-0.3-0.4-0.3c-0.6,0-1.3,0-2,0v0.6
		c0,3.1,0,6.3,0,9.4c0,0.9-0.1,1-1,1c-0.5,0-0.9,0-1.4,0c-0.4,0-0.7-0.2-0.7-0.7c0-0.2,0-0.3,0-0.5c0-8.4,0-16.8,0-25.2
		c0-0.2,0-0.4,0-0.6c0-0.4,0.2-0.6,0.6-0.5c2,0,4,0,6,0.1c2.6,0.2,4.3,1.9,4.4,4.6c0.1,2.4,0.1,4.8,0,7.2c0,1.6-0.7,2.9-2.2,3.7
		c-0.3,0.2-0.3,0.4-0.2,0.7c0.7,2.8,1.4,5.6,2.1,8.5c0.1,0.2,0.1,0.4,0.2,0.6l0,0c0,0.1,0.1,0.2,0.3,0.2c0.1,0,0.3-0.1,0.3-0.2l0,0
		c0.3-2.4,0.6-4.9,1-7.3c0.5-3.9,1-7.8,1.6-11.6c0.3-1.9,0.5-3.7,0.8-5.6c0.1-0.4,0.2-0.7,0.7-0.7c0.8,0,1.5,0,2.3,0
		c0.4,0,0.6,0.3,0.6,0.6c0,0.2,0.1,0.4,0.1,0.6c0.3,2.5,0.6,4.9,0.9,7.4c0.4,3.4,0.8,6.7,1.2,10.1c0.1,0.4,0.1,0.8,0.1,1.3
		c0.1-0.4,0.1-0.7,0.2-1c0.3-2.4,0.6-4.7,0.9-7.1c0.4-3.7,0.9-7.4,1.3-11.1c0.1-0.6,0.3-0.8,0.9-0.8c0.6,0,1.3,0,1.9,0
		c0.6,0,0.8,0.2,0.9,0.8c0.4,3.3,0.9,6.6,1.3,9.9c0.5,3.8,1,7.7,1.6,11.5c0.2,1.5,0.4,3,0.6,4.5C52.6,50,52.5,50.2,52,50.2
		 M62.4,36.5c0-14.3-11.6-25.8-25.9-25.9c-14.3,0-25.9,11.6-25.9,25.9c0,14.3,11.6,25.8,25.9,25.8S62.4,50.8,62.4,36.5"/>
</g>
</svg>
