<?xml version="1.0" encoding="utf-8"?>
<!-- Generator: Adobe Illustrator 19.1.0, SVG Export Plug-In . SVG Version: 6.00 Build 0)  -->
<svg version="1.1" id="Layer_1" xmlns="http://www.w3.org/2000/svg" xmlns:xlink="http://www.w3.org/1999/xlink" x="0px" y="0px"
	 viewBox="0 0 20 92" style="enable-background:new 0 0 20 92;" xml:space="preserve">
<style type="text/css">
	.st0{clip-path:url(#SVGID_2_);}
	.st1{fill:#FFFFFF;}
</style>
<g>
	<path class="st1" d="M0.3,56c-0.1,0.1,0,7,0,7.1c0,0.4,0.2,0.5,0.5,0.5c0.1,0,0.2,0,0.3,0c1.9,0,1.7,0.3,1.7-1.6c0-0.3,0-0.5,0-0.8
		c0.2,0,10.8,0,16,0c0.1,0,0.3,0,0.4,0c0.4,0,0.6-0.1,0.6-0.6c0-0.5,0-1,0-1.5c0-0.9,0-0.9-0.9-0.9c-5.2,0-15.9,0-16.1,0
		c0-0.2,0-1.5,0-2c0-0.3-0.1-0.5-0.4-0.5c-0.6,0-1.1,0-1.6,0C0.5,55.6,0.4,55.8,0.3,56 M0.2,64.9c0,2.1,0,6.6,0,6.8
		C0.4,71.8,0.5,72,0.6,72c0.6,0,1.2,0,1.8,0c0.3,0,0.4-0.2,0.4-0.5c0-0.5,0-1.8,0-1.9c0.2,0,10.9,0,16,0c0.1,0,0.2,0,0.4,0
		c0.4,0,0.6-0.2,0.6-0.6c0-0.5,0-1,0-1.5c0-0.9,0-1-1-1h-16c0-0.2,0-1.4,0-1.9c0-0.4-0.2-0.5-0.5-0.5c-0.4,0-0.8,0-1.2,0
		C0.3,64,0.2,64.1,0.2,64.9 M0.2,24.3c0,0.6,0.1,0.7,0.7,0.7C7,25,13,25,19,25c0.6,0,0.7-0.1,0.7-0.7c0-1.7,0-5.2,0-5.3
		c0-0.2-0.2-0.4-0.4-0.4c-0.6,0-1.1,0-1.7,0c-0.2,0-0.4,0.1-0.4,0.4c0,0.2,0,2.1,0,3C17,22,1,22,0.9,22c-0.5,0-0.7,0.2-0.7,0.7
		C0.2,23.2,0.2,23.8,0.2,24.3 M0.3,27.9c0,0.7,0,1.5,0,2.2c0,0.3,0.2,0.4,0.4,0.4c0.2,0,16.2,0,18.4,0c0.5,0,0.7-0.1,0.7-0.6
		c0-0.6,0-1.2,0-1.8c0-0.4-0.1-0.6-0.6-0.6c-0.1,0-18.3,0-18.5,0C0.4,27.4,0.3,27.6,0.3,27.9 M19.8,32.8c0-0.3-0.2-0.5-0.5-0.5
		c-0.3,0-0.6,0-0.9,0c-1.1,0-1.1,0-1.1,1.1V36h-6.4c0-0.2,0-1.9,0-2.6c0-0.6-0.2-0.7-0.7-0.7c-0.4,0-0.7,0-1.1,0
		c-0.5,0-0.6,0.1-0.7,0.6c0,0.8,0,2.6,0,2.7H2.8c0-0.1,0-2.1,0-2.9c0-0.5-0.1-0.6-0.6-0.6c-0.4,0-0.8,0-1.1,0
		c-0.6,0-0.8,0.1-0.8,0.8c0,1.7,0,3.4,0,5.1c0,0.7,0.1,0.8,0.8,0.8c6,0,12,0,18,0c0.7,0,0.8-0.1,0.8-0.8
		C19.8,36.6,19.8,32.9,19.8,32.8 M8.8,48C8.2,48,7.6,47.9,7,47.9c0.1-0.1,0.3-0.1,0.4-0.1c0.7-0.1,1.5-0.1,2.2-0.2
		c3.1-0.3,6.2-0.6,9.3-0.9c0.5-0.1,0.7-0.2,0.8-0.8c0-0.6,0-1.3,0-1.9c0-0.5-0.2-0.7-0.7-0.8c-2.2-0.3-16.8-2.2-18.3-2.4
		c-0.3,0-0.5,0-0.5,0.4c0,0.6,0,1.2,0,1.8c0,0.4,0.2,0.6,0.6,0.6c0.5,0.1,1.1,0.1,1.6,0.2c2.7,0.3,5.4,0.6,8.2,0.9
		c0.6,0.1,1.2,0.1,1.8,0.2C12.1,45,11.8,45,11.6,45C8,45.4,4.5,45.7,0.9,46c-0.5,0-0.7,0.2-0.7,0.7c0,0.7,0,1.3,0,2
		c0,0.5,0.2,0.7,0.7,0.8c0.5,0.1,1,0.1,1.6,0.2c2.6,0.2,5.1,0.5,7.7,0.7c0.7,0.1,1.5,0.1,2.2,0.2c0,0,0,0,0,0.1
		c-0.8,0.1-1.5,0.1-2.3,0.2C7.1,51.2,4,51.6,1,51.9c-0.5,0.1-0.7,0.3-0.7,0.8c0,0.6,0,1.1,0,1.7c0,0.5,0.1,0.6,0.6,0.5
		c1.8-0.2,11-1.4,13.7-1.8c1.5-0.2,3-0.4,4.5-0.6c0.5-0.1,0.6-0.3,0.7-0.7c0-0.7,0-1.4,0-2.1c0-0.5-0.2-0.7-0.7-0.7
		c-0.5-0.1-1-0.1-1.5-0.1C14.6,48.6,11.7,48.3,8.8,48 M0.2,11.3c0,1.7,0,3.4,0,5.1c0,0.7,0.1,0.8,0.8,0.8c0,0,18,0,18.1,0
		c0.4,0,0.6-0.1,0.6-0.6c0-1.9,0-3.8,0-5.7c0-0.4-0.2-0.6-0.6-0.6c-0.4,0-0.8,0-1.2,0c-0.6,0-0.7,0.1-0.7,0.7c0,0.9,0,1.8,0,2.7
		c0,0.3-0.1,0.4-0.4,0.4c-1.9,0-3.7,0-5.6,0c-0.1,0-0.2,0-0.4,0v-0.4c0-0.7,0-1.5,0-2.2c0-0.5-0.2-0.7-0.7-0.7c-0.4,0-0.7,0-1.1,0
		c-0.6,0-0.7,0.1-0.7,0.7c0,0.7,0,1.5,0,2.2c0,0.1,0,0.3,0,0.4H2.8c0-0.2,0-2.1,0-3c0-0.5-0.1-0.6-0.6-0.6c-0.4,0-0.7,0-1.1,0
		C0.4,10.5,0.2,10.6,0.2,11.3 M2.8,5.4c0-0.6,0-1.1,0.1-1.7C3,3.4,3.3,3.1,3.7,3.1c1.6,0,3.2,0,4.9,0c0.5,0,0.8,0.3,0.9,0.8
		c0.1,0.5,0.1,1,0.1,1.5H2.8z M0.3,3.6C0.2,5,0.2,6.4,0.2,7.9c0,0.5,0.1,0.6,0.6,0.6c0.1,0,0.2,0,0.4,0c5.8,0,17.8,0,17.9,0
		c0.5,0,0.6-0.1,0.6-0.6c0-0.5,0-1.1,0-1.6c0-0.7-0.1-0.8-0.8-0.8c-2.2,0-6.7,0-6.9,0C12,4.6,12,4.6,12.8,4.4c2-0.4,4.1-0.8,6.1-1.2
		c0.7-0.1,0.8-0.2,0.8-1c0-0.5,0-1,0-1.5c0-0.7-0.2-0.8-0.9-0.7c-2.4,0.5-4.8,1.1-7.1,1.6c-0.2,0-0.3,0.1-0.4-0.1
		c-0.6-0.9-1.4-1.4-2.5-1.4C7.2,0.1,5.4,0,3.7,0.1C1.7,0.2,0.4,1.5,0.3,3.6 M17.4,77.4c0,0.8-0.4,1.2-1.2,1.2c-2.1,0-4.2,0-6.2,0
		s-4.2,0-6.2,0c-0.8,0-1.2-0.4-1.2-1.2c0-0.8,0.3-1.3,1.2-1.3c4.2,0,8.4,0,12.6,0C17.1,76.2,17.4,76.6,17.4,77.4 M19.9,76.3
		c-0.4-2.1-1.6-3.2-3.8-3.2c-2,0-4.1,0-6.1,0v0c-2.1,0-4.3,0-6.4,0c-1.7,0-3,1-3.4,2.6c-0.3,1.2-0.3,2.3,0,3.5
		c0.3,0.9,0.8,1.6,1.7,2c0.7,0.3,1.4,0.4,2.1,0.4c3.2,0,6.5,0,9.7,0c0.9,0,1.7,0,2.6,0c1.7-0.1,2.9-0.9,3.3-2.4
		C20,78.3,20.1,77.3,19.9,76.3 M9.5,89H2.8c0-0.5,0-1,0-1.4c0.1-0.6,0.4-0.9,1-0.9c1.6,0,3.1,0,4.7,0c0.5,0,0.9,0.3,1,0.9
		c0,0.2,0,0.3,0,0.5C9.6,88.3,9.5,88.6,9.5,89 M12.1,89c0-0.2,0-0.4,0-0.5c0-0.3,0.1-0.4,0.4-0.5c1.1-0.2,2.2-0.4,3.3-0.7
		c1.1-0.2,2.2-0.4,3.3-0.7c0.3-0.1,0.6-0.2,0.6-0.6c0-0.7,0-1.4,0-2.1c0-0.4-0.2-0.5-0.6-0.4c-0.3,0-0.6,0.1-0.8,0.2
		c-2.2,0.5-4.4,1-6.5,1.5c-0.1,0-0.4,0-0.4-0.1c-0.6-0.9-1.5-1.4-2.6-1.4c-1.7,0-3.4-0.1-5.2,0c-1.7,0.1-2.8,1.1-3.1,2.7
		c-0.4,1.7-0.2,3.5-0.2,5.2c0,0.3,0.2,0.4,0.5,0.4c0.2,0,0.3,0,0.5,0c5.8,0,11.7,0,17.5,0c0.1,0,0.3,0,0.4,0c0.5,0,0.6-0.1,0.6-0.6
		c0-0.5,0-1.1,0-1.6c0-0.6-0.1-0.8-0.8-0.8c-1.7,0-3.4,0-5.2,0H12.1z"/>
</g>
</svg>
