<?xml version="1.0" encoding="utf-8"?>
<!-- Generator: Adobe Illustrator 19.1.0, SVG Export Plug-In . SVG Version: 6.00 Build 0)  -->
<svg version="1.1" id="Layer_1" xmlns="http://www.w3.org/2000/svg" xmlns:xlink="http://www.w3.org/1999/xlink" x="0px" y="0px"
	 viewBox="-283 388 45 18" style="enable-background:new -283 388 45 18;" xml:space="preserve">
<style type="text/css">
	.st0{fill:#FFFFFF;}
</style>
<g>
	<g>
		<path class="st0" d="M-279,406c2.2,0,3.2-0.9,3.2-2.6c0-4.7,0.9-8.8,2.8-12.3c0.5-1,0.7-1.6,0.7-1.9c0-0.8-0.8-1.2-2.4-1.2
			c-1.6,0-3.4,1.5-5.3,4.6c-2,3.1-3,6.8-3,11.1c0,1.5,1.1,2.3,3.2,2.3H-279z M-267.7,406c2.2,0,3.2-0.9,3.2-2.6
			c0-4.7,0.9-8.8,2.8-12.3c0.5-1,0.7-1.6,0.7-1.9c0-0.8-0.8-1.2-2.4-1.2s-3.4,1.5-5.4,4.6s-3,6.8-3,11.1c0,1.5,1.1,2.2,3.2,2.2h0.9
			V406z"/>
	</g>
	<g>
		<path class="st0" d="M-242,406c-2.2,0-3.2-0.9-3.2-2.6c0-4.7-0.9-8.8-2.8-12.3c-0.5-1-0.7-1.6-0.7-1.9c0-0.8,0.8-1.2,2.4-1.2
			c1.6,0,3.4,1.5,5.4,4.6s3,6.8,3,11.1c0,1.5-1.1,2.2-3.2,2.2h-0.9V406z M-253.3,406c-2.2,0-3.2-0.9-3.2-2.6c0-4.7-0.9-8.8-2.8-12.3
			c-0.5-1-0.7-1.6-0.7-1.9c0-0.8,0.8-1.2,2.4-1.2s3.4,1.5,5.4,4.6s3,6.8,3,11.1c0,1.5-1.1,2.2-3.2,2.2h-0.9V406z"/>
	</g>
</g>
</svg>
